<svg width="50" height="50" viewBox="0 0 50 50" fill="none" xmlns="http://www.w3.org/2000/svg">
<path d="M22.4043 6H28.7872L35.8085 8.53333V11.0667H32.617L31.3404 18.0333L30.7021 21.2L33.5688 22.419C34.6267 22.8689 35.5894 23.516 36.4055 24.3257L36.6351 24.5535C37.7607 25.6704 38.529 27.0966 38.8423 28.651V28.651C38.9472 29.1713 39 29.7007 39 30.2314V31.0167C39 32.0696 38.8952 33.1199 38.6871 34.1521L38.5707 34.7298C38.4317 35.4196 38.2293 36.0951 37.9662 36.7477V36.7477C37.3849 38.1897 36.5159 39.4981 35.4123 40.5931L35.0726 40.9302C34.7126 41.2874 34.3277 41.6186 33.9209 41.9214L33.7971 42.0135C32.5999 42.9044 31.2192 43.5174 29.7554 43.8079V43.8079C29.1115 43.9356 28.4566 44 27.8002 44H23.7799C22.4459 44 21.1204 43.7865 19.8539 43.3676V43.3676C18.5836 42.9475 17.3885 42.3258 16.3152 41.5271V41.5271C15.6953 41.0657 15.1191 40.5477 14.5947 39.9801L13.0426 38.3L19.2128 19.9333L23.0426 20.2023L24.3191 16.7667L22.4043 16.1333L19.2128 19.9333L12.1915 40.8333V42.1H10.9149L9 40.8333L12.1915 23.1L22.4043 6Z" fill="none"/>
<path d="M21.7439 11.9123C21.3468 13.2175 20.6403 14.27 19.8444 14.9235C19.0452 15.5796 18.2075 15.7995 17.4928 15.5821C16.7782 15.3646 16.2048 14.7155 15.9065 13.7254C15.6094 12.7394 15.6088 11.4718 16.0059 10.1665C16.403 8.86129 17.1095 7.80882 17.9054 7.15534C18.7046 6.49918 19.5423 6.27933 20.257 6.49676C20.9716 6.71418 21.545 7.36335 21.8433 8.3534C22.1404 9.33943 22.141 10.607 21.7439 11.9123Z" stroke="none"/>
</svg>
