<svg width="50" height="50" viewBox="0 0 50 50" fill="none" xmlns="http://www.w3.org/2000/svg">
<circle cx="23.25" cy="44.25" r="1.25" fill="#374951"/>
<circle cx="23.75" cy="43.75" r="1.25" fill="#374951"/>
<circle cx="23.75" cy="40.25" r="1.25" fill="#374951"/>
<circle cx="24.25" cy="34.75" r="1.25" fill="#374951"/>
<circle cx="24.25" cy="29.25" r="1.25" fill="#374951"/>
<circle cx="22.25" cy="23.25" r="1.25" fill="#374951"/>
<circle cx="20.75" cy="18.25" r="1.25" fill="#374951"/>
<circle cx="18.25" cy="14.25" r="1.25" fill="#374951"/>
<circle cx="21.25" cy="11.25" r="1.25" fill="#374951"/>
<circle cx="29.25" cy="12.25" r="1.25" fill="#374951"/>
<circle cx="30.25" cy="9.75" r="1.25" fill="#374951"/>
<circle cx="31.75" cy="9.25" r="1.25" fill="#374951"/>
<circle cx="32.75" cy="11.75" r="1.25" fill="#374951"/>
<circle cx="32.75" cy="9.25" r="1.25" fill="#374951"/>
<circle cx="33.75" cy="9.25" r="1.25" fill="#374951"/>
<circle cx="35.75" cy="9.25" r="1.25" fill="#374951"/>
<circle cx="38.25" cy="9.75" r="1.25" fill="#374951"/>
<circle cx="38.25" cy="10.75" r="1.25" fill="#374951"/>
<circle cx="28.25" cy="7.25" r="1.25" fill="#374951"/>
<circle cx="25.25" cy="6.25" r="1.25" fill="#374951"/>
<circle cx="24.75" cy="6.25" r="1.25" fill="#374951"/>
<circle cx="20.75" cy="6.25" r="1.25" fill="#374951"/>
<circle cx="19.75" cy="5.75" r="1.25" fill="#374951"/>
<circle cx="18.75" cy="5.25" r="1.25" fill="#374951"/>
<circle cx="18.75" cy="6.25" r="1.25" fill="#374951"/>
<circle cx="17.75" cy="8.25" r="1.25" fill="#374951"/>
<circle cx="17.25" cy="7.75" r="1.25" fill="#374951"/>
<circle cx="14.25" cy="8.25" r="1.25" fill="#374951"/>
<circle cx="16.25" cy="6.25" r="1.25" fill="#374951"/>
<circle cx="15.75" cy="5.75" r="1.25" fill="#374951"/>
</svg>
