<svg width="50" height="50" viewBox="0 0 50 50" fill="none" xmlns="http://www.w3.org/2000/svg">
<path d="M12.378 28.5C11.4922 28.5 11.0438 27.4335 11.6633 26.8005L31.7341 6.29344C32.1968 5.82063 33 6.14827 33 6.80985V6.80985C33 6.93458 32.9684 7.05728 32.9081 7.1665L25.8183 20.0169C25.4505 20.6834 25.9326 21.5 26.6938 21.5H37.5144C38.4151 21.5 38.8567 22.5976 38.2069 23.2214L16.7541 43.8161C16.215 44.3336 15.3303 43.8485 15.4769 43.1157V43.1157C15.4922 43.039 15.5192 42.9651 15.557 42.8967L22.6817 29.9831C23.0495 29.3166 22.5674 28.5 21.8062 28.5H12.378Z" fill="none"/>
</svg>
