<svg width="50" height="50" viewBox="0 0 50 50" fill="none" xmlns="http://www.w3.org/2000/svg">
<g clip-path="url(#clip0_2368_414)">
<path d="M38.6132 22V22C41.8142 23.8532 40.9337 28.6966 37.2853 29.3047L36.1131 29.5" stroke="#D4DBDF" stroke-width="1.5" stroke-linecap="round"/>
<path d="M40.1132 28.5V28.5C41.4333 30.6123 40.5789 33.4041 38.3027 34.4157L38.1131 34.5" stroke="#D4DBDF" stroke-width="1.5" stroke-linecap="round"/>
<path d="M38.1132 34.5V34.5C38.6814 37.0569 37.2248 39.6295 34.7399 40.4577L34.6132 40.5" stroke="#D4DBDF" stroke-width="1.5" stroke-linecap="round"/>
<path d="M29.1131 30L29.5141 30C32.152 30 34.1305 32.4133 33.6131 35V35" stroke="#D4DBDF" stroke-width="1.5" stroke-linecap="round"/>
<path d="M30.6131 39.5V39.5C30.3546 36.9152 32.5284 34.7415 35.1132 35V35" stroke="#D4DBDF" stroke-width="1.5" stroke-linecap="round"/>
<path d="M25 37.5V37.5C25.6386 35.9036 26.9036 34.6386 28.5001 34V34" stroke="#D4DBDF" stroke-width="1.5" stroke-linecap="round"/>
<path d="M25.0001 20.5L25.123 20.3156C25.6914 19.4629 26.5278 18.8241 27.5 18.5V18.5" stroke="#D4DBDF" stroke-width="1.5" stroke-linecap="round"/>
<path d="M22.6405 16.3368L23.0107 16.4688C23.9508 16.8041 24.6844 17.5532 25.0001 18.5V18.5" stroke="#D4DBDF" stroke-width="1.5" stroke-linecap="round"/>
<path d="M34.1132 27.5L33.628 27.4191C32.1142 27.1668 30.9141 26.0048 30.6132 24.5V24.5" stroke="#D4DBDF" stroke-width="1.5" stroke-linecap="round"/>
<path d="M35.1131 20V20C35.1131 23.6715 30.8963 25.7425 27.9908 23.498L27.6131 23.2063" stroke="#D4DBDF" stroke-width="1.5" stroke-linecap="round"/>
<path d="M34.6131 40.5V40.5C32.7326 43.7909 28.0869 44.0551 25.8454 40.9986L25.1132 40" stroke="#D4DBDF" stroke-width="1.5" stroke-linecap="round"/>
<path d="M25.1131 9.50001V9.50001C26.6275 8.28848 28.7212 8.10441 30.4238 9.03312L33.1131 10.5" stroke="#D4DBDF" stroke-width="1.5" stroke-linecap="round"/>
<path d="M29.6132 12.5V12.5C31.3213 9.17362 36.3725 10.8357 35.7716 14.5264L35.6132 15.5" stroke="#D4DBDF" stroke-width="1.5" stroke-linecap="round"/>
<path d="M30.6132 20.5L31.2425 18.4547C31.9714 16.0856 34.6071 14.8862 36.8722 15.8929L37.044 15.9693C39.3829 17.0088 40.1488 19.9525 38.6131 22V22" stroke="#D4DBDF" stroke-width="1.5" stroke-linecap="round"/>
<path d="M11.4999 22V22C8.29888 23.8532 9.17934 28.6966 12.8278 29.3047L13.9999 29.5" stroke="#D4DBDF" stroke-width="1.5" stroke-linecap="round"/>
<path d="M9.99988 28.5V28.5C8.67974 30.6123 9.53416 33.4041 11.8104 34.4157L12 34.5" stroke="#D4DBDF" stroke-width="1.5" stroke-linecap="round"/>
<path d="M11.9999 34.5V34.5C11.4317 37.0569 12.8883 39.6295 15.3731 40.4577L15.4999 40.5" stroke="#D4DBDF" stroke-width="1.5" stroke-linecap="round"/>
<path d="M21.9999 30L21.5989 30C18.961 30 16.9826 32.4133 17.4999 35V35" stroke="#D4DBDF" stroke-width="1.5" stroke-linecap="round"/>
<path d="M20.4999 39.5V39.5C20.7584 36.9152 18.5847 34.7415 15.9999 35V35" stroke="#D4DBDF" stroke-width="1.5" stroke-linecap="round"/>
<path d="M14.9998 27.5L15.485 27.4191C16.9988 27.1668 18.1989 26.0048 18.4999 24.5V24.5" stroke="#D4DBDF" stroke-width="1.5" stroke-linecap="round"/>
<path d="M13.9999 20V20C13.9999 23.6715 18.2167 25.7425 21.1223 23.498L21.4999 23.2063" stroke="#D4DBDF" stroke-width="1.5" stroke-linecap="round"/>
<path d="M15.4999 40.5V40.5C17.3804 43.7909 22.0262 44.0551 24.2676 40.9986L24.9999 40" stroke="#D4DBDF" stroke-width="1.5" stroke-linecap="round"/>
<path d="M25 9.50001V9.50001C23.4855 8.28848 21.3918 8.10441 19.6892 9.03312L16.9999 10.5" stroke="#D4DBDF" stroke-width="1.5" stroke-linecap="round"/>
<path d="M20.4998 12.5V12.5C18.7917 9.17362 13.7406 10.8357 14.3414 14.5264L14.4999 15.5" stroke="#D4DBDF" stroke-width="1.5" stroke-linecap="round"/>
<path d="M19.4999 20.5L18.8706 18.4547C18.1416 16.0856 15.5059 14.8862 13.2409 15.8929L13.069 15.9693C10.7302 17.0088 9.96428 19.9525 11.4999 22V22" stroke="#D4DBDF" stroke-width="1.5" stroke-linecap="round"/>
<path d="M25 9.00001L25 40" stroke="#D4DBDF" stroke-width="1.5"/>
</g>
<defs>
<clipPath id="clip0_2368_414">
<rect width="50" height="50" fill="white"/>
</clipPath>
</defs>
</svg>
