<svg width="50" height="50" viewBox="0 0 50 50" fill="none" xmlns="http://www.w3.org/2000/svg">
<path d="M14 20.5V20.5C15.7916 20.5 17.3821 21.6464 17.9487 23.3461L18 23.5L18.408 23.092C20.0411 21.4589 20.8168 19.1563 20.5047 16.8679L20.4189 16.2384C19.8889 12.352 22.2511 8.65351 26 7.5V7.5L25.6777 8.89644C24.9538 12.0336 26.0322 15.3133 28.4767 17.4086V17.4086C30.4405 19.0919 31.8138 21.3597 32.3954 23.8799L33 26.5V26.5C34.2257 25.8871 35 24.6343 35 23.2639V22L36.892 27.2029C39.1245 33.3423 35.7496 40.0979 29.5 42V42V42C32.1649 39.9273 33.1366 36.3414 31.8827 33.2069L31 31L30 34L29.3147 30.916C29.1127 30.0073 28.5676 29.2117 27.7931 28.6954V28.6954C25.8083 27.3722 24.8411 24.965 25.3586 22.6364L25.5 22V22C23.1638 22.8761 21.7513 25.2591 22.1042 27.7291L22.2231 28.5619C22.3974 29.782 21.9871 31.0129 21.1157 31.8843L21 32V32C20.6922 30.769 19.731 29.8078 18.5 29.5V29.5V29.5C18.8213 30.1427 18.8873 30.8833 18.6845 31.5726L17.9108 34.2032C17.0624 37.0878 18.0946 40.1959 20.5 42V42V42C14.5593 40.6498 11.0161 34.5381 12.7964 28.7119L14.5867 22.8525C14.8411 22.0202 14.6154 21.1154 14 20.5V20.5Z" fill="#D4DBDF"/>
</svg>
