<svg width="50" height="50" viewBox="0 0 50 50" fill="none" xmlns="http://www.w3.org/2000/svg">
<circle cx="25" cy="25" r="2" fill="#374951"/>
<path d="M35.5 15L24 24" stroke="#374951" stroke-linecap="round"/>
<path d="M35.5 15L25.5 24" stroke="#374951" stroke-linecap="round"/>
<path d="M35.5 15L26.5 24" stroke="#374951" stroke-linecap="round"/>
<path d="M35.5 15L26 26" stroke="#374951" stroke-linecap="round"/>
<path d="M24.9999 7.9878V7.9878C15.6111 7.9878 7.99998 15.6051 7.99998 24.9939V24.9939C7.99998 34.3827 15.6111 42 25 42V42C34.3888 42 41.9999 34.3889 42 25.0001L42 24.7009C42 21.006 40.7684 17.4166 38.4999 14.5V14.5" stroke="#374951" stroke-width="2" stroke-linecap="round"/>
<path d="M25 8V16" stroke="#374951" stroke-width="2" stroke-linecap="round"/>
<circle cx="25" cy="25" r="2" fill="#374951"/>
<path d="M35.5 15L24 24" stroke="#374951" stroke-linecap="round"/>
<path d="M35.5 15L25.5 24" stroke="#374951" stroke-linecap="round"/>
<path d="M35.5 15L26.5 24" stroke="#374951" stroke-linecap="round"/>
<path d="M35.5 15L26 26" stroke="#374951" stroke-linecap="round"/>
<path d="M24.9999 7.9878V7.9878C15.6111 7.9878 7.99998 15.6051 7.99998 24.9939V24.9939C7.99998 34.3827 15.6111 42 25 42V42C34.3888 42 41.9999 34.3889 42 25.0001L42 24.7009C42 21.006 40.7684 17.4166 38.4999 14.5V14.5" stroke="#374951" stroke-width="2" stroke-linecap="round"/>
<path d="M25 8V16" stroke="#374951" stroke-width="2" stroke-linecap="round"/>
</svg>
