<svg width="26" height="46" viewBox="0 0 26 46" fill="none" xmlns="http://www.w3.org/2000/svg">
<g clip-path="url(#clip0_1707_22)">
<path d="M7 37H19L20 38V46H6V38L7 37Z" fill="#050505"/>
<path d="M19.5 13H22.194C23.4111 13 24.346 14.078 24.1739 15.2828L23.9257 17.0203C23.648 18.9637 22.8045 20.7824 21.5003 22.2497L19.5 24.5" stroke="#6E6F77" stroke-width="0.5"/>
<path d="M6.5 13H3.80602C2.58892 13 1.654 14.078 1.82612 15.2828L2.07432 17.0203C2.35196 18.9637 3.19548 20.7824 4.49973 22.2497L6.5 24.5" stroke="#6E6F77" stroke-width="0.5"/>
<path d="M8.75437 35.4913C8.90955 35.1809 9.19874 34.961 9.52885 34.8541C10.0038 34.7002 10.675 34.4211 11 34C11.3875 33.4981 11.4748 32.5461 11.4944 32.1644C11.4996 32.0616 11.4484 31.9656 11.3628 31.9085L10.5774 31.3849C10.2167 31.1444 10 30.7396 10 30.3061V30.3061C10 30.1048 10.0469 29.9063 10.1369 29.7262L10.3775 29.2451C10.4498 29.1005 10.416 28.9254 10.2952 28.818L6.67127 25.5967C6.2443 25.2172 6 24.6731 6 24.1019V23.0704C6 22.4017 6.3342 21.7772 6.8906 21.4063L6.95001 21.3667C7.28353 21.1443 7.45206 20.7443 7.37818 20.3503L6.08594 13.4584C6.02941 13.1568 5.90426 12.8724 5.7202 12.6269L4.5 11H21.5L20.2798 12.6269C20.0957 12.8724 19.9706 13.1568 19.9141 13.4584L18.6218 20.3503C18.5479 20.7443 18.7165 21.1443 19.05 21.3667L19.1094 21.4063C19.6658 21.7772 20 22.4017 20 23.0704V24.1019C20 24.6731 19.7557 25.2172 19.3287 25.5967L15.7048 28.818C15.584 28.9254 15.5502 29.1005 15.6225 29.2451L15.8631 29.7262C15.9531 29.9063 16 30.1048 16 30.3061V30.3061C16 30.7396 15.7833 31.1444 15.4226 31.3849L14.6372 31.9085C14.5516 31.9656 14.5004 32.0616 14.5056 32.1644C14.5252 32.5461 14.6125 33.4981 15 34C15.325 34.4211 15.9962 34.7002 16.4712 34.8541C16.8013 34.961 17.0904 35.1809 17.2456 35.4913V35.4913C17.4058 35.8115 17.4058 36.1885 17.2456 36.5087L17 37H9L8.75437 36.5087C8.59424 36.1885 8.59424 35.8115 8.75437 35.4913V35.4913Z" fill="url(#paint0_linear_1707_22)"/>
<rect x="10" y="43" width="6" height="1" fill="url(#paint1_linear_1707_22)"/>
<path d="M9 39.6125L10.5 40.6875L11 39.075L12 40.6875L13 38L14 40.6875L15 39.075L15.5 40.6875L17 39.6125L16 42.3H13H10L9 39.6125Z" fill="url(#paint2_linear_1707_22)"/>
<path d="M4.5 11H21.5" stroke="url(#paint3_linear_1707_22)" stroke-width="0.5" stroke-linecap="round"/>
<path d="M10.5 29H15.5" stroke="url(#paint4_linear_1707_22)" stroke-width="0.2" stroke-linecap="round"/>
<path d="M7 37H19" stroke="url(#paint5_linear_1707_22)" stroke-width="0.2" stroke-linecap="round"/>
<path d="M5.5 12H20.5" stroke="url(#paint6_linear_1707_22)" stroke-width="0.2" stroke-linecap="round"/>
<path d="M7.5 21H18.5" stroke="url(#paint7_linear_1707_22)" stroke-width="0.2" stroke-linecap="round"/>
<path d="M11.5 32H14.5" stroke="url(#paint8_linear_1707_22)" stroke-width="0.2" stroke-linecap="round"/>
<path d="M7 37L6.00002 37.9998L6 46" stroke="#F4E5A3" stroke-width="0.2"/>
<path d="M18.9994 37.0001L19.9994 38.0001L20 46" stroke="#D3AC74" stroke-width="0.2"/>
<path d="M13 21.5V28.5" stroke="#BBB9B6" stroke-width="0.1" stroke-linecap="round"/>
<path d="M17 21.5L16.8922 22.3621C16.6314 24.4489 16.165 26.5049 15.5 28.5V28.5" stroke="#D2D0CE" stroke-width="0.1" stroke-linecap="round"/>
<path d="M15 21.5V21.5C15 23.8304 14.8346 26.1578 14.505 28.4648L14.5 28.5" stroke="#D2D0CE" stroke-width="0.1" stroke-linecap="round"/>
<path d="M9 21.5V22.1459C9 24.3517 9.51356 26.5271 10.5 28.5V28.5" stroke="#F3F2F0" stroke-width="0.1" stroke-linecap="round"/>
<path d="M18.5 22V22C18.5 23.6515 18.1849 25.2878 17.5715 26.8212L17.5 27" stroke="#D2D0CE" stroke-width="0.1" stroke-linecap="round"/>
<path d="M7.5 21.5L7.4793 21.6242C7.16992 23.4805 7.53177 25.3863 8.5 27V27" stroke="#F3F2F0" stroke-width="0.1" stroke-linecap="round"/>
<path d="M11 21.5V21.5C11 23.8304 11.1654 26.1578 11.495 28.4648L11.5 28.5" stroke="#C4C3C0" stroke-width="0.1" stroke-linecap="round"/>
</g>
<defs>
<linearGradient id="paint0_linear_1707_22" x1="5.5" y1="23.5" x2="21" y2="23.5" gradientUnits="userSpaceOnUse">
<stop stop-color="#BFC1C6"/>
<stop offset="0.498718" stop-color="#6D6E79"/>
<stop offset="1" stop-color="#CDCED6"/>
</linearGradient>
<linearGradient id="paint1_linear_1707_22" x1="9" y1="43.5" x2="17" y2="43.5" gradientUnits="userSpaceOnUse">
<stop stop-color="#FFF7B9"/>
<stop offset="0.46" stop-color="#AE751A"/>
<stop offset="1" stop-color="#D9B683"/>
</linearGradient>
<linearGradient id="paint2_linear_1707_22" x1="9" y1="40" x2="17" y2="40" gradientUnits="userSpaceOnUse">
<stop stop-color="#FFF7B9"/>
<stop offset="0.46" stop-color="#AE751A"/>
<stop offset="1" stop-color="#D9B683"/>
</linearGradient>
<linearGradient id="paint3_linear_1707_22" x1="4.5" y1="11" x2="21.5" y2="11" gradientUnits="userSpaceOnUse">
<stop stop-color="#F4E5A3"/>
<stop offset="0.485" stop-color="#B17921"/>
<stop offset="1" stop-color="#D3AC74"/>
</linearGradient>
<linearGradient id="paint4_linear_1707_22" x1="11" y1="29" x2="17" y2="29" gradientUnits="userSpaceOnUse">
<stop stop-color="#F4E5A3"/>
<stop offset="0.485" stop-color="#B17921"/>
<stop offset="1" stop-color="#D3AC74"/>
</linearGradient>
<linearGradient id="paint5_linear_1707_22" x1="9.5" y1="37" x2="15.5" y2="37" gradientUnits="userSpaceOnUse">
<stop stop-color="#F4E5A3"/>
<stop offset="0.485" stop-color="#B17921"/>
<stop offset="1" stop-color="#D3AC74"/>
</linearGradient>
<linearGradient id="paint6_linear_1707_22" x1="8.5" y1="14" x2="14.5" y2="14" gradientUnits="userSpaceOnUse">
<stop stop-color="#F4E5A3"/>
<stop offset="0.485" stop-color="#B17921"/>
<stop offset="1" stop-color="#D3AC74"/>
</linearGradient>
<linearGradient id="paint7_linear_1707_22" x1="9" y1="23" x2="15" y2="23" gradientUnits="userSpaceOnUse">
<stop stop-color="#F3F2F0"/>
<stop offset="0.485" stop-color="#AFADA9"/>
<stop offset="1" stop-color="#D3D1CE"/>
</linearGradient>
<linearGradient id="paint8_linear_1707_22" x1="12.5" y1="32" x2="18.5" y2="32" gradientUnits="userSpaceOnUse">
<stop stop-color="#F4E5A3"/>
<stop offset="0.485" stop-color="#B17921"/>
<stop offset="1" stop-color="#D3AC74"/>
</linearGradient>
<clipPath id="clip0_1707_22">
<rect width="26" height="46" fill="white"/>
</clipPath>
</defs>
</svg>
