<svg width="30" height="47" viewBox="0 0 30 47" fill="none" xmlns="http://www.w3.org/2000/svg">
<path d="M6 19H24C21.3541 24.9534 19.7782 31.3266 19.3449 37.827L19 43V47H11V43L10.6551 37.827C10.2218 31.3266 8.64595 24.9534 6 19Z" fill="url(#paint0_linear_1706_11)"/>
<path d="M13 15H17L17.084 15.4199C17.3552 16.7762 18.0219 18.0219 19 19H11C11.9781 18.0219 12.6448 16.7762 12.916 15.4199L13 15Z" fill="url(#paint1_linear_1706_11)"/>
<circle cx="15" cy="8" r="8" fill="url(#paint2_angular_1706_11)"/>
<path d="M11.0493 21.9341C11.1968 21.9341 11.3374 21.9243 11.4712 21.9048C11.605 21.8853 11.7397 21.8594 11.8755 21.8271V21.2148H11.1284C11.1167 21.2148 11.1045 21.2148 11.0918 21.2148C11.0801 21.2139 11.0688 21.2119 11.0581 21.209C11.0483 21.2051 11.04 21.1997 11.0332 21.1929C11.0273 21.186 11.0244 21.1763 11.0244 21.1636C11.0244 21.1509 11.0273 21.1411 11.0332 21.1343C11.04 21.1274 11.0483 21.1226 11.0581 21.1196C11.0679 21.1157 11.0786 21.1138 11.0903 21.1138C11.103 21.1128 11.1157 21.1123 11.1284 21.1123H11.8755C11.9165 21.1123 11.9443 21.1201 11.959 21.1357C11.9736 21.1514 11.981 21.1777 11.981 21.2148V21.8271C11.981 21.8574 11.9697 21.8809 11.9473 21.8975C11.9248 21.9131 11.9009 21.9233 11.8755 21.9282C11.731 21.9565 11.5908 21.9805 11.4551 22C11.3193 22.0205 11.1841 22.0308 11.0493 22.0308C10.8677 22.0308 10.708 22.0151 10.5703 21.9839C10.4336 21.9526 10.3193 21.9033 10.2275 21.8359C10.1357 21.7676 10.0664 21.6802 10.0195 21.5737C9.97363 21.4663 9.95068 21.3364 9.95068 21.1841C9.95068 21.0317 9.97363 20.9023 10.0195 20.7959C10.0664 20.6885 10.1357 20.6011 10.2275 20.5337C10.3193 20.4653 10.4336 20.4155 10.5703 20.3843C10.708 20.353 10.8677 20.3374 11.0493 20.3374C11.1763 20.3374 11.2993 20.3491 11.4185 20.3726C11.5376 20.395 11.6587 20.4316 11.7817 20.4824C11.7974 20.4893 11.8086 20.498 11.8154 20.5088C11.8223 20.5186 11.8257 20.5283 11.8257 20.5381C11.8257 20.5498 11.8213 20.5601 11.8125 20.5688C11.8037 20.5776 11.7925 20.582 11.7788 20.582C11.7749 20.582 11.7656 20.5796 11.751 20.5747C11.6387 20.5278 11.5225 20.4927 11.4023 20.4692C11.2822 20.4458 11.1646 20.4341 11.0493 20.4341C10.8755 20.4341 10.7271 20.4487 10.604 20.478C10.481 20.5063 10.3799 20.5513 10.3008 20.6128C10.2227 20.6733 10.1655 20.751 10.1294 20.8457C10.0933 20.9395 10.0752 21.0522 10.0752 21.1841C10.0752 21.3159 10.0933 21.4292 10.1294 21.5239C10.1655 21.6177 10.2227 21.6953 10.3008 21.7568C10.3799 21.8174 10.481 21.8623 10.604 21.8916C10.7271 21.9199 10.8755 21.9341 11.0493 21.9341ZM12.4438 22C12.4292 22 12.4175 21.9995 12.4087 21.9985C12.4009 21.9976 12.395 21.9956 12.3911 21.9927C12.3872 21.9888 12.3848 21.9834 12.3838 21.9766C12.3838 21.9688 12.3838 21.9585 12.3838 21.9458V20.4634C12.3838 20.438 12.3882 20.416 12.397 20.3975C12.4058 20.3779 12.4243 20.3682 12.4526 20.3682C12.4761 20.3682 12.4912 20.3784 12.498 20.3989C12.5049 20.4185 12.5083 20.4399 12.5083 20.4634V21.9033H13.7666C13.7861 21.9033 13.8008 21.9087 13.8105 21.9194C13.8213 21.9292 13.8267 21.9399 13.8267 21.9517C13.8267 21.9644 13.8213 21.9756 13.8105 21.9854C13.8008 21.9951 13.7861 22 13.7666 22H12.4438ZM16.0781 21.1841C16.0781 21.3267 16.0566 21.4512 16.0137 21.5576C15.9717 21.6631 15.9062 21.751 15.8174 21.8213C15.7295 21.8916 15.6177 21.9443 15.4819 21.9795C15.3472 22.0137 15.187 22.0308 15.0015 22.0308C14.8159 22.0308 14.6553 22.0137 14.5195 21.9795C14.3848 21.9443 14.2734 21.8916 14.1855 21.8213C14.0977 21.751 14.0322 21.6631 13.9893 21.5576C13.9473 21.4512 13.9263 21.3267 13.9263 21.1841C13.9263 21.0415 13.9473 20.9175 13.9893 20.812C14.0322 20.7056 14.0977 20.6172 14.1855 20.5469C14.2734 20.4766 14.3848 20.4243 14.5195 20.3901C14.6553 20.355 14.8159 20.3374 15.0015 20.3374C15.187 20.3374 15.3472 20.355 15.4819 20.3901C15.6177 20.4243 15.7295 20.4766 15.8174 20.5469C15.9062 20.6172 15.9717 20.7056 16.0137 20.812C16.0566 20.9175 16.0781 21.0415 16.0781 21.1841ZM14.0508 21.1841C14.0508 21.3208 14.0703 21.4365 14.1094 21.5312C14.1484 21.626 14.207 21.7036 14.2852 21.7642C14.3643 21.8237 14.4634 21.8672 14.5825 21.8945C14.7017 21.9209 14.8413 21.9341 15.0015 21.9341C15.1616 21.9341 15.3013 21.9209 15.4204 21.8945C15.5396 21.8672 15.6387 21.8237 15.7178 21.7642C15.7969 21.7036 15.856 21.626 15.895 21.5312C15.9341 21.4365 15.9536 21.3208 15.9536 21.1841C15.9536 21.0483 15.9341 20.9331 15.895 20.8384C15.856 20.7427 15.7969 20.665 15.7178 20.6055C15.6387 20.5449 15.5396 20.5015 15.4204 20.4751C15.3013 20.4478 15.1616 20.4341 15.0015 20.4341C14.8413 20.4341 14.7017 20.4478 14.5825 20.4751C14.4634 20.5015 14.3643 20.5449 14.2852 20.6055C14.207 20.665 14.1484 20.7427 14.1094 20.8384C14.0703 20.9331 14.0508 21.0483 14.0508 21.1841ZM18.1318 21.5225C18.1318 21.6221 18.1128 21.7031 18.0747 21.7656C18.0366 21.8271 17.9839 21.8755 17.9165 21.9106C17.8501 21.9448 17.7715 21.9683 17.6807 21.981C17.5898 21.9937 17.4922 22 17.3877 22H16.5439C16.5273 22 16.5146 21.9951 16.5059 21.9854C16.498 21.9756 16.4941 21.9634 16.4941 21.9487V20.4224C16.4941 20.4048 16.4995 20.3916 16.5103 20.3828C16.521 20.373 16.5347 20.3682 16.5513 20.3682H17.2222C17.2925 20.3682 17.3618 20.3691 17.4302 20.3711C17.4985 20.3721 17.563 20.377 17.6235 20.3857C17.6851 20.3936 17.7412 20.4058 17.792 20.4224C17.8438 20.439 17.8882 20.4624 17.9253 20.4927C17.9634 20.5229 17.9927 20.561 18.0132 20.6069C18.0347 20.6528 18.0454 20.709 18.0454 20.7754C18.0454 20.832 18.0376 20.8799 18.022 20.9189C18.0063 20.958 17.9863 20.9907 17.9619 21.0171C17.9385 21.0435 17.9121 21.0645 17.8828 21.0801C17.8535 21.0947 17.8252 21.106 17.7979 21.1138C17.7705 21.1206 17.7456 21.125 17.7231 21.127C17.7007 21.1289 17.6841 21.1299 17.6733 21.1299H17.6631C17.7227 21.1357 17.7803 21.146 17.8359 21.1606C17.8916 21.1753 17.9409 21.1978 17.9839 21.228C18.0278 21.2573 18.063 21.2959 18.0894 21.3438C18.1167 21.3916 18.1309 21.4512 18.1318 21.5225ZM17.9209 20.7754C17.9209 20.7256 17.9126 20.6816 17.896 20.6436C17.8794 20.6045 17.8477 20.5718 17.8008 20.5454C17.7539 20.519 17.6885 20.499 17.6045 20.4854C17.5205 20.4717 17.4111 20.4648 17.2764 20.4648H16.6187V21.0933H17.3115C17.417 21.0933 17.5078 21.0894 17.584 21.0815C17.6611 21.0728 17.7246 21.0566 17.7744 21.0332C17.8242 21.0098 17.8608 20.9775 17.8843 20.9365C17.9087 20.8955 17.9209 20.8418 17.9209 20.7754ZM18.0073 21.5225C18.0073 21.4551 17.9907 21.3989 17.9575 21.354C17.9253 21.3091 17.8789 21.2734 17.8184 21.2471C17.7588 21.2207 17.686 21.2021 17.6001 21.1914C17.5142 21.1797 17.418 21.1738 17.3115 21.1738H16.6187V21.9033H17.4434C17.5752 21.9033 17.6787 21.8926 17.7539 21.8711C17.8301 21.8496 17.8867 21.8213 17.9238 21.7861C17.9609 21.751 17.9839 21.7104 17.9927 21.6646C18.0024 21.6187 18.0073 21.5713 18.0073 21.5225ZM20.061 21.9487C20.061 21.9634 20.0586 21.9741 20.0537 21.981C20.0488 21.9878 20.042 21.9927 20.0332 21.9956C20.0254 21.9985 20.0156 22 20.0039 22C19.9922 22 19.979 22 19.9644 22H18.5962C18.5864 22 18.5791 21.9995 18.5742 21.9985C18.5693 21.9976 18.5654 21.9951 18.5625 21.9912C18.5605 21.9873 18.5591 21.9824 18.5581 21.9766C18.5581 21.9697 18.5581 21.9604 18.5581 21.9487V20.437C18.5581 20.4224 18.5581 20.4106 18.5581 20.4019C18.5591 20.3931 18.561 20.3862 18.564 20.3813C18.5669 20.3765 18.5718 20.373 18.5786 20.3711C18.5864 20.3691 18.5977 20.3682 18.6123 20.3682H19.9497C19.9644 20.3682 19.978 20.3682 19.9907 20.3682C20.0034 20.3682 20.0146 20.3696 20.0244 20.3726C20.0352 20.3755 20.0435 20.3804 20.0493 20.3872C20.0552 20.394 20.0581 20.4048 20.0581 20.4194C20.0581 20.4312 20.0552 20.4404 20.0493 20.4473C20.0435 20.4531 20.0352 20.4575 20.0244 20.4604C20.0146 20.4634 20.0034 20.4648 19.9907 20.4648C19.978 20.4648 19.9644 20.4648 19.9497 20.4648H18.6826V21.1064H19.9424C19.9639 21.1064 19.9819 21.1094 19.9966 21.1152C20.0112 21.1211 20.0186 21.1338 20.0186 21.1533C20.0186 21.1748 20.0122 21.189 19.9995 21.1958C19.9878 21.2026 19.9722 21.2061 19.9526 21.2061H18.6826V21.9033H19.9526C19.9673 21.9033 19.981 21.9033 19.9937 21.9033C20.0063 21.9033 20.0176 21.9048 20.0273 21.9077C20.0381 21.9106 20.0464 21.9155 20.0522 21.9224C20.0581 21.9282 20.061 21.937 20.061 21.9487Z" fill="white"/>
<path d="M13.0576 26.8779L13.3838 25.9658C13.389 25.9528 13.3949 25.9408 13.4014 25.9297C13.4079 25.918 13.4167 25.9121 13.4277 25.9121C13.4408 25.9121 13.4495 25.9157 13.4541 25.9229C13.4593 25.93 13.4619 25.9372 13.4619 25.9443C13.4619 25.9515 13.4606 25.959 13.458 25.9668C13.4561 25.9746 13.4535 25.9831 13.4502 25.9922L13.1055 26.9482C13.0983 26.9632 13.0918 26.9756 13.0859 26.9854C13.0801 26.9951 13.0706 27 13.0576 27C13.0446 27 13.0348 26.9951 13.0283 26.9854C13.0225 26.9756 13.0169 26.9632 13.0117 26.9482L12.6855 26.042L12.3613 26.9482C12.3561 26.9632 12.3499 26.9756 12.3428 26.9854C12.3356 26.9951 12.3258 27 12.3135 27C12.3005 27 12.2907 26.9951 12.2842 26.9854C12.2783 26.9756 12.2728 26.9632 12.2676 26.9482L11.9238 25.9922C11.9206 25.9831 11.9173 25.9746 11.9141 25.9668C11.9115 25.959 11.9102 25.9515 11.9102 25.9443C11.9102 25.9372 11.9128 25.93 11.918 25.9229C11.9232 25.9157 11.9323 25.9121 11.9453 25.9121C11.9577 25.9121 11.9668 25.918 11.9727 25.9297C11.9792 25.9408 11.985 25.9528 11.9902 25.9658L12.3135 26.8779L12.6396 25.9658C12.6449 25.9528 12.6504 25.9408 12.6562 25.9297C12.6628 25.918 12.6719 25.9121 12.6836 25.9121C12.6986 25.9121 12.709 25.917 12.7148 25.9268C12.7214 25.9365 12.7275 25.9495 12.7334 25.9658L13.0576 26.8779ZM13.7959 26.9385C13.7959 26.9469 13.7956 26.9551 13.7949 26.9629C13.7943 26.9701 13.7926 26.9766 13.79 26.9824C13.7881 26.9876 13.7845 26.9919 13.7793 26.9951C13.7741 26.9984 13.7666 27 13.7568 27C13.7386 27 13.7275 26.9945 13.7236 26.9834C13.7197 26.9723 13.7178 26.9574 13.7178 26.9385V26.3115C13.7178 26.2952 13.7201 26.2812 13.7246 26.2695C13.7292 26.2578 13.7406 26.252 13.7588 26.252C13.7751 26.252 13.7852 26.2578 13.7891 26.2695C13.7936 26.2812 13.7959 26.2946 13.7959 26.3096V26.9385ZM13.7051 26.0312C13.7051 26.0163 13.71 26.0039 13.7197 25.9941C13.7295 25.9837 13.7419 25.9785 13.7568 25.9785C13.7718 25.9785 13.7845 25.9837 13.7949 25.9941C13.8053 26.0039 13.8105 26.0163 13.8105 26.0312C13.8105 26.0462 13.8053 26.0583 13.7949 26.0674C13.7845 26.0765 13.7718 26.0811 13.7568 26.0811C13.7419 26.0811 13.7295 26.0765 13.7197 26.0674C13.71 26.0583 13.7051 26.0462 13.7051 26.0312ZM14.9863 26.9297C14.9863 26.9382 14.9857 26.9466 14.9844 26.9551C14.9831 26.9635 14.9808 26.971 14.9775 26.9775C14.9749 26.984 14.971 26.9896 14.9658 26.9941C14.9606 26.998 14.9541 27 14.9463 27C14.9365 27 14.929 26.998 14.9238 26.9941C14.9193 26.9896 14.9157 26.984 14.9131 26.9775C14.9105 26.971 14.9089 26.9635 14.9082 26.9551C14.9082 26.9466 14.9082 26.9382 14.9082 26.9297V26.5918C14.9082 26.541 14.9043 26.4967 14.8965 26.459C14.8893 26.4212 14.8747 26.39 14.8525 26.3652C14.8311 26.3398 14.8008 26.321 14.7617 26.3086C14.7233 26.2962 14.6729 26.29 14.6104 26.29C14.5719 26.29 14.5312 26.2933 14.4883 26.2998C14.4453 26.3057 14.4043 26.3164 14.3652 26.332C14.3262 26.347 14.2917 26.3672 14.2617 26.3926C14.2318 26.418 14.2109 26.4499 14.1992 26.4883V26.9297C14.1992 26.9382 14.1989 26.9466 14.1982 26.9551C14.1976 26.9635 14.196 26.971 14.1934 26.9775C14.1908 26.984 14.1868 26.9896 14.1816 26.9941C14.1771 26.998 14.1709 27 14.1631 27C14.154 27 14.1465 26.998 14.1406 26.9941C14.1354 26.9896 14.1312 26.984 14.1279 26.9775C14.1253 26.971 14.1234 26.9635 14.1221 26.9551C14.1214 26.9466 14.1211 26.9382 14.1211 26.9297V26.2969C14.1211 26.2858 14.1234 26.2757 14.1279 26.2666C14.1325 26.2568 14.1439 26.252 14.1621 26.252C14.1784 26.252 14.1885 26.2565 14.1924 26.2656C14.1969 26.2741 14.1992 26.2845 14.1992 26.2969V26.4199C14.2174 26.3783 14.2428 26.3451 14.2754 26.3203C14.3079 26.2949 14.3434 26.276 14.3818 26.2637C14.4209 26.2507 14.4603 26.2422 14.5 26.2383C14.5404 26.2344 14.5771 26.2324 14.6104 26.2324C14.6807 26.2324 14.7396 26.2386 14.7871 26.251C14.8353 26.2627 14.874 26.2826 14.9033 26.3105C14.9333 26.3385 14.9544 26.3757 14.9668 26.4219C14.9798 26.4674 14.9863 26.5241 14.9863 26.5918V26.9297ZM16.1504 26.9297C16.1504 26.9382 16.1497 26.9466 16.1484 26.9551C16.1471 26.9635 16.1449 26.971 16.1416 26.9775C16.139 26.984 16.1351 26.9896 16.1299 26.9941C16.1247 26.998 16.1182 27 16.1104 27C16.1006 27 16.0931 26.998 16.0879 26.9941C16.0833 26.9896 16.0798 26.984 16.0771 26.9775C16.0745 26.971 16.0729 26.9635 16.0723 26.9551C16.0723 26.9466 16.0723 26.9382 16.0723 26.9297V26.5918C16.0723 26.541 16.0684 26.4967 16.0605 26.459C16.0534 26.4212 16.0387 26.39 16.0166 26.3652C15.9951 26.3398 15.9648 26.321 15.9258 26.3086C15.8874 26.2962 15.8369 26.29 15.7744 26.29C15.736 26.29 15.6953 26.2933 15.6523 26.2998C15.6094 26.3057 15.5684 26.3164 15.5293 26.332C15.4902 26.347 15.4557 26.3672 15.4258 26.3926C15.3958 26.418 15.375 26.4499 15.3633 26.4883V26.9297C15.3633 26.9382 15.363 26.9466 15.3623 26.9551C15.3617 26.9635 15.36 26.971 15.3574 26.9775C15.3548 26.984 15.3509 26.9896 15.3457 26.9941C15.3411 26.998 15.335 27 15.3271 27C15.318 27 15.3105 26.998 15.3047 26.9941C15.2995 26.9896 15.2952 26.984 15.292 26.9775C15.2894 26.971 15.2874 26.9635 15.2861 26.9551C15.2855 26.9466 15.2852 26.9382 15.2852 26.9297V26.2969C15.2852 26.2858 15.2874 26.2757 15.292 26.2666C15.2965 26.2568 15.3079 26.252 15.3262 26.252C15.3424 26.252 15.3525 26.2565 15.3564 26.2656C15.361 26.2741 15.3633 26.2845 15.3633 26.2969V26.4199C15.3815 26.3783 15.4069 26.3451 15.4395 26.3203C15.472 26.2949 15.5075 26.276 15.5459 26.2637C15.585 26.2507 15.6243 26.2422 15.6641 26.2383C15.7044 26.2344 15.7412 26.2324 15.7744 26.2324C15.8447 26.2324 15.9036 26.2386 15.9512 26.251C15.9993 26.2627 16.0381 26.2826 16.0674 26.3105C16.0973 26.3385 16.1185 26.3757 16.1309 26.4219C16.1439 26.4674 16.1504 26.5241 16.1504 26.5918V26.9297ZM16.8799 26.29C16.8193 26.29 16.7656 26.2952 16.7188 26.3057C16.6719 26.3161 16.6318 26.333 16.5986 26.3564C16.5661 26.3792 16.5407 26.4089 16.5225 26.4453C16.5042 26.4818 16.4938 26.5264 16.4912 26.5791H17.2275V26.5264C17.2275 26.4938 17.2214 26.4632 17.209 26.4346C17.1973 26.4059 17.1777 26.3809 17.1504 26.3594C17.123 26.3379 17.0872 26.321 17.043 26.3086C16.9987 26.2962 16.9443 26.29 16.8799 26.29ZM16.8291 26.9521C16.891 26.9521 16.945 26.9482 16.9912 26.9404C17.0374 26.9326 17.0771 26.9232 17.1104 26.9121C17.1436 26.901 17.1706 26.8896 17.1914 26.8779C17.2129 26.8662 17.2295 26.8564 17.2412 26.8486C17.2451 26.8473 17.2477 26.8467 17.249 26.8467C17.2562 26.8467 17.2627 26.8503 17.2686 26.8574C17.2751 26.8639 17.2783 26.8711 17.2783 26.8789C17.2783 26.8861 17.2751 26.8919 17.2686 26.8965C17.2627 26.9023 17.25 26.9115 17.2305 26.9238C17.2116 26.9362 17.1842 26.9489 17.1484 26.9619C17.1126 26.9743 17.0684 26.9854 17.0156 26.9951C16.9629 27.0049 16.9004 27.0098 16.8281 27.0098C16.7526 27.0098 16.6885 27.0003 16.6357 26.9814C16.583 26.9626 16.54 26.9362 16.5068 26.9023C16.4736 26.8685 16.4495 26.8278 16.4346 26.7803C16.4196 26.7327 16.4121 26.6807 16.4121 26.624C16.4121 26.5485 16.4242 26.4857 16.4482 26.4355C16.4723 26.3854 16.5052 26.3454 16.5469 26.3154C16.5892 26.2848 16.6387 26.2633 16.6953 26.251C16.7526 26.2386 16.8141 26.2324 16.8799 26.2324C17.0153 26.2324 17.1165 26.2585 17.1836 26.3105C17.2513 26.362 17.2852 26.4359 17.2852 26.5322C17.2852 26.5413 17.2845 26.5514 17.2832 26.5625C17.2819 26.5736 17.2799 26.5843 17.2773 26.5947C17.2754 26.6045 17.2728 26.613 17.2695 26.6201C17.2669 26.6266 17.2643 26.6299 17.2617 26.6299H16.9746L16.4902 26.6201C16.4915 26.6807 16.4993 26.7321 16.5137 26.7744C16.5286 26.8161 16.5501 26.8503 16.5781 26.877C16.6068 26.903 16.6419 26.9222 16.6836 26.9346C16.7253 26.9463 16.7738 26.9521 16.8291 26.9521ZM18.1279 26.2559C18.1351 26.2578 18.1403 26.2617 18.1436 26.2676C18.1468 26.2728 18.1484 26.2786 18.1484 26.2852C18.1484 26.2936 18.1455 26.3014 18.1396 26.3086C18.1344 26.3158 18.1263 26.3193 18.1152 26.3193C18.112 26.3193 18.11 26.3193 18.1094 26.3193C18.1087 26.3187 18.1068 26.318 18.1035 26.3174C18.0781 26.3102 18.0537 26.3047 18.0303 26.3008C18.0075 26.2969 17.9824 26.2949 17.9551 26.2949C17.9167 26.2949 17.8799 26.2988 17.8447 26.3066C17.8102 26.3138 17.7786 26.3252 17.75 26.3408C17.722 26.3558 17.6976 26.3753 17.6768 26.3994C17.6559 26.4229 17.6403 26.4505 17.6299 26.4824V26.9316C17.6299 26.9486 17.6276 26.9642 17.623 26.9785C17.6185 26.9928 17.6081 27 17.5918 27C17.5827 27 17.5752 26.998 17.5693 26.9941C17.5641 26.9902 17.5602 26.985 17.5576 26.9785C17.555 26.972 17.5534 26.9648 17.5527 26.957C17.5521 26.9486 17.5518 26.9401 17.5518 26.9316V26.3066C17.5518 26.2917 17.5544 26.279 17.5596 26.2686C17.5648 26.2575 17.5768 26.252 17.5957 26.252C17.61 26.252 17.6191 26.2572 17.623 26.2676C17.6276 26.278 17.6299 26.291 17.6299 26.3066V26.4199C17.6403 26.3802 17.6582 26.348 17.6836 26.3232C17.7096 26.2985 17.7383 26.2796 17.7695 26.2666C17.8014 26.2529 17.834 26.2438 17.8672 26.2393C17.9004 26.2347 17.9297 26.2324 17.9551 26.2324C17.9798 26.2324 18.001 26.2334 18.0186 26.2354C18.0368 26.2367 18.0524 26.2386 18.0654 26.2412C18.0785 26.2432 18.0898 26.2454 18.0996 26.248C18.1094 26.2507 18.1188 26.2533 18.1279 26.2559ZM12.7363 27.9619C12.7467 27.943 12.7549 27.93 12.7607 27.9229C12.7666 27.9157 12.7754 27.9121 12.7871 27.9121C12.7962 27.9121 12.804 27.9157 12.8105 27.9229C12.8177 27.9294 12.8268 27.9424 12.8379 27.9619L13.377 28.9346C13.3841 28.9476 13.3877 28.9603 13.3877 28.9727C13.3877 28.9844 13.3844 28.9935 13.3779 29C13.3714 29.0065 13.3636 29.0098 13.3545 29.0098C13.3454 29.0098 13.3363 29.0065 13.3271 29C13.3187 28.9941 13.3099 28.9831 13.3008 28.9668L13.1348 28.666H12.4395L12.2715 28.9707C12.2643 28.9844 12.2559 28.9941 12.2461 29C12.237 29.0065 12.2279 29.0098 12.2188 29.0098C12.2077 29.0098 12.1995 29.0059 12.1943 28.998C12.1891 28.9902 12.1865 28.9798 12.1865 28.9668C12.1865 28.9616 12.1875 28.9564 12.1895 28.9512C12.1921 28.946 12.195 28.9401 12.1982 28.9336L12.7363 27.9619ZM13.1064 28.6084L12.7871 28.0254L12.4678 28.6084H13.1064ZM14.3379 28.9121L14.5449 28.291C14.5501 28.2767 14.5566 28.2666 14.5645 28.2607C14.5723 28.2549 14.5804 28.252 14.5889 28.252C14.5993 28.252 14.6084 28.2562 14.6162 28.2646C14.6247 28.2725 14.6289 28.2832 14.6289 28.2969C14.6289 28.3066 14.6276 28.3138 14.625 28.3184L14.3945 28.9521C14.388 28.9691 14.3796 28.9821 14.3691 28.9912C14.3594 29.0003 14.349 29.0049 14.3379 29.0049C14.3255 29.0049 14.3151 29.001 14.3066 28.9932C14.2982 28.9847 14.2907 28.971 14.2842 28.9521L14.0703 28.3418L13.8564 28.9521C13.8493 28.971 13.8411 28.9847 13.832 28.9932C13.8229 29.001 13.8132 29.0049 13.8027 29.0049C13.7773 29.0049 13.7585 28.9873 13.7461 28.9521L13.5156 28.3184C13.513 28.3138 13.5117 28.3066 13.5117 28.2969C13.5117 28.2832 13.5156 28.2725 13.5234 28.2646C13.5319 28.2562 13.5413 28.252 13.5518 28.252C13.5602 28.252 13.5684 28.2549 13.5762 28.2607C13.584 28.2666 13.5905 28.2767 13.5957 28.291L13.8027 28.9121L14.0098 28.3047C14.0215 28.2695 14.0413 28.252 14.0693 28.252C14.0817 28.252 14.0934 28.2565 14.1045 28.2656C14.1162 28.2741 14.125 28.2871 14.1309 28.3047L14.3379 28.9121ZM14.9297 28.7812C14.9297 28.8125 14.9375 28.8389 14.9531 28.8604C14.9694 28.8818 14.9919 28.8994 15.0205 28.9131C15.0492 28.9268 15.083 28.9368 15.1221 28.9434C15.1618 28.9492 15.2051 28.9521 15.252 28.9521C15.3092 28.9521 15.36 28.9482 15.4043 28.9404C15.4486 28.932 15.4873 28.9215 15.5205 28.9092C15.5537 28.8968 15.5817 28.8835 15.6045 28.8691C15.6273 28.8542 15.6462 28.8398 15.6611 28.8262V28.6299C15.596 28.6208 15.5286 28.6123 15.459 28.6045C15.3893 28.596 15.319 28.5918 15.248 28.5918C15.1979 28.5918 15.153 28.5947 15.1133 28.6006C15.0742 28.6064 15.041 28.6165 15.0137 28.6309C14.9863 28.6452 14.9655 28.6647 14.9512 28.6895C14.9368 28.7135 14.9297 28.7441 14.9297 28.7812ZM15.3447 28.29C15.2822 28.29 15.2288 28.2917 15.1846 28.2949C15.1403 28.2982 15.1022 28.3024 15.0703 28.3076C15.0391 28.3128 15.0127 28.3184 14.9912 28.3242C14.9697 28.3301 14.9508 28.3359 14.9346 28.3418C14.9268 28.3418 14.9196 28.3379 14.9131 28.3301C14.9066 28.3223 14.9033 28.3138 14.9033 28.3047C14.9033 28.2962 14.9072 28.29 14.915 28.2861C14.9202 28.2835 14.9323 28.2793 14.9512 28.2734C14.9707 28.2676 14.9977 28.2617 15.0322 28.2559C15.0674 28.2493 15.1107 28.2438 15.1621 28.2393C15.2142 28.2347 15.2754 28.2324 15.3457 28.2324C15.3789 28.2324 15.4118 28.2347 15.4443 28.2393C15.4769 28.2432 15.5075 28.2507 15.5361 28.2617C15.5654 28.2728 15.5924 28.2881 15.6172 28.3076C15.6426 28.3271 15.6641 28.3525 15.6816 28.3838C15.6999 28.4144 15.7142 28.4518 15.7246 28.4961C15.735 28.5397 15.7402 28.5911 15.7402 28.6504V28.9316C15.7402 28.9395 15.7399 28.9473 15.7393 28.9551C15.7386 28.9629 15.7367 28.9704 15.7334 28.9775C15.7308 28.984 15.7269 28.9896 15.7217 28.9941C15.7165 28.998 15.7093 29 15.7002 29C15.6852 29 15.6748 28.9932 15.6689 28.9795C15.6637 28.9658 15.6611 28.9486 15.6611 28.9277V28.8604C15.6481 28.8766 15.6312 28.8936 15.6104 28.9111C15.5895 28.9287 15.5632 28.945 15.5312 28.96C15.4993 28.9743 15.4613 28.9863 15.417 28.9961C15.3727 29.0052 15.3203 29.0098 15.2598 29.0098C15.2031 29.0098 15.1497 29.0055 15.0996 28.9971C15.0501 28.9886 15.0068 28.9753 14.9697 28.957C14.9333 28.9388 14.9043 28.9154 14.8828 28.8867C14.862 28.8574 14.8516 28.8223 14.8516 28.7812C14.8516 28.7337 14.8613 28.6943 14.8809 28.6631C14.901 28.6312 14.9287 28.6058 14.9639 28.5869C14.999 28.5674 15.04 28.5537 15.0869 28.5459C15.1344 28.5381 15.1855 28.5342 15.2402 28.5342C15.2812 28.5342 15.3223 28.5358 15.3633 28.5391C15.4049 28.5417 15.4443 28.5459 15.4814 28.5518C15.5186 28.557 15.5524 28.5638 15.583 28.5723C15.6143 28.5801 15.6403 28.5895 15.6611 28.6006C15.6611 28.5342 15.6523 28.4808 15.6348 28.4404C15.6172 28.4001 15.5938 28.3688 15.5645 28.3467C15.5352 28.3239 15.5013 28.3089 15.4629 28.3018C15.4251 28.2939 15.3857 28.29 15.3447 28.29ZM16.6152 28.2559C16.6224 28.2578 16.6276 28.2617 16.6309 28.2676C16.6341 28.2728 16.6357 28.2786 16.6357 28.2852C16.6357 28.2936 16.6328 28.3014 16.627 28.3086C16.6217 28.3158 16.6136 28.3193 16.6025 28.3193C16.5993 28.3193 16.5973 28.3193 16.5967 28.3193C16.596 28.3187 16.5941 28.318 16.5908 28.3174C16.5654 28.3102 16.541 28.3047 16.5176 28.3008C16.4948 28.2969 16.4697 28.2949 16.4424 28.2949C16.404 28.2949 16.3672 28.2988 16.332 28.3066C16.2975 28.3138 16.266 28.3252 16.2373 28.3408C16.2093 28.3558 16.1849 28.3753 16.1641 28.3994C16.1432 28.4229 16.1276 28.4505 16.1172 28.4824V28.9316C16.1172 28.9486 16.1149 28.9642 16.1104 28.9785C16.1058 28.9928 16.0954 29 16.0791 29C16.07 29 16.0625 28.998 16.0566 28.9941C16.0514 28.9902 16.0475 28.985 16.0449 28.9785C16.0423 28.972 16.0407 28.9648 16.04 28.957C16.0394 28.9486 16.0391 28.9401 16.0391 28.9316V28.3066C16.0391 28.2917 16.0417 28.279 16.0469 28.2686C16.0521 28.2575 16.0641 28.252 16.083 28.252C16.0973 28.252 16.1064 28.2572 16.1104 28.2676C16.1149 28.278 16.1172 28.291 16.1172 28.3066V28.4199C16.1276 28.3802 16.1455 28.348 16.1709 28.3232C16.1969 28.2985 16.2256 28.2796 16.2568 28.2666C16.2887 28.2529 16.3213 28.2438 16.3545 28.2393C16.3877 28.2347 16.417 28.2324 16.4424 28.2324C16.4671 28.2324 16.4883 28.2334 16.5059 28.2354C16.5241 28.2367 16.5397 28.2386 16.5527 28.2412C16.5658 28.2432 16.5771 28.2454 16.5869 28.248C16.5967 28.2507 16.6061 28.2533 16.6152 28.2559ZM17.1973 29.0098C17.1387 29.0098 17.083 29.0039 17.0303 28.9922C16.9782 28.9798 16.9323 28.959 16.8926 28.9297C16.8535 28.9004 16.8223 28.8613 16.7988 28.8125C16.776 28.7637 16.7646 28.7025 16.7646 28.6289C16.7646 28.556 16.7741 28.4945 16.793 28.4443C16.8125 28.3936 16.8405 28.3525 16.877 28.3213C16.9141 28.29 16.9593 28.2676 17.0127 28.2539C17.0667 28.2396 17.1283 28.2324 17.1973 28.2324C17.2663 28.2324 17.3255 28.2367 17.375 28.2451C17.4245 28.2529 17.4661 28.263 17.5 28.2754C17.5345 28.2878 17.5625 28.3014 17.584 28.3164C17.6061 28.3307 17.6237 28.3441 17.6367 28.3564V27.9814C17.6367 27.973 17.6367 27.9645 17.6367 27.9561C17.6374 27.9476 17.639 27.9401 17.6416 27.9336C17.6442 27.9271 17.6478 27.9219 17.6523 27.918C17.6576 27.9141 17.665 27.9121 17.6748 27.9121C17.6846 27.9121 17.6921 27.9141 17.6973 27.918C17.7025 27.9212 17.7064 27.9258 17.709 27.9316C17.7116 27.9375 17.7132 27.9447 17.7139 27.9531C17.7145 27.9609 17.7148 27.9697 17.7148 27.9795V28.9473C17.7148 28.9681 17.7106 28.9821 17.7021 28.9893C17.6943 28.9964 17.6859 29 17.6768 29C17.6657 29 17.6562 28.9967 17.6484 28.9902C17.6406 28.9837 17.6367 28.9701 17.6367 28.9492V28.8135C17.6296 28.8415 17.6169 28.8659 17.5986 28.8867C17.5804 28.9069 17.5586 28.9242 17.5332 28.9385C17.5085 28.9528 17.4811 28.9648 17.4512 28.9746C17.4212 28.9837 17.391 28.9909 17.3604 28.9961C17.3304 29.0013 17.3011 29.0049 17.2725 29.0068C17.2445 29.0088 17.2194 29.0098 17.1973 29.0098ZM17.1973 28.9521C17.2363 28.9515 17.279 28.9486 17.3252 28.9434C17.3714 28.9375 17.4157 28.9274 17.458 28.9131C17.5003 28.8988 17.5378 28.8789 17.5703 28.8535C17.6029 28.8281 17.625 28.7949 17.6367 28.7539V28.4023C17.6217 28.3906 17.6025 28.3783 17.5791 28.3652C17.5563 28.3522 17.5273 28.3402 17.4922 28.3291C17.4577 28.3174 17.416 28.3079 17.3672 28.3008C17.319 28.2936 17.2624 28.29 17.1973 28.29C17.1348 28.29 17.0811 28.2965 17.0361 28.3096C16.9919 28.3226 16.9551 28.3431 16.9258 28.3711C16.8971 28.3984 16.876 28.4336 16.8623 28.4766C16.8493 28.5189 16.8428 28.5697 16.8428 28.6289C16.8428 28.6908 16.8519 28.7425 16.8701 28.7842C16.889 28.8252 16.9144 28.8581 16.9463 28.8828C16.9782 28.9076 17.0156 28.9255 17.0586 28.9365C17.1022 28.9469 17.1484 28.9521 17.1973 28.9521Z" fill="white"/>
<path d="M12 24H18" stroke="white" stroke-width="0.1" stroke-linecap="round"/>
<path d="M12 31H18" stroke="white" stroke-width="0.1" stroke-linecap="round"/>
<defs>
<linearGradient id="paint0_linear_1706_11" x1="6" y1="31.5" x2="24" y2="31.5" gradientUnits="userSpaceOnUse">
<stop stop-color="#1E2447"/>
<stop offset="0.745" stop-color="#414767"/>
<stop offset="1" stop-color="#1E2447"/>
</linearGradient>
<linearGradient id="paint1_linear_1706_11" x1="11" y1="17" x2="19" y2="17" gradientUnits="userSpaceOnUse">
<stop stop-color="#141831"/>
<stop offset="0.74" stop-color="#292C45"/>
<stop offset="1" stop-color="#161A33"/>
</linearGradient>
<radialGradient id="paint2_angular_1706_11" cx="0" cy="0" r="1" gradientUnits="userSpaceOnUse" gradientTransform="translate(15 8) rotate(90) scale(8)">
<stop stop-color="#2338A6"/>
<stop offset="0.126" stop-color="#1F2C73"/>
<stop offset="0.251237" stop-color="#2338A6"/>
<stop offset="0.381" stop-color="#815DA5"/>
<stop offset="0.499267" stop-color="#2338A6"/>
<stop offset="0.643413" stop-color="#1F2C73"/>
<stop offset="0.756688" stop-color="#2338A6"/>
<stop offset="0.883551" stop-color="#815DA5"/>
<stop offset="0.997826" stop-color="#2338A7"/>
<stop offset="1" stop-color="#2338A6"/>
</radialGradient>
</defs>
</svg>
