<svg width="104" height="184" viewBox="0 0 26 46" fill="none" xmlns="http://www.w3.org/2000/svg">
<g clip-path="url(#clip0_1707_62)">
<path d="M2 10L13 18L24 10V10C27.8797 20.4453 24.6235 32.2012 15.9226 39.1619L13 41.5L10.0774 39.1619C1.37649 32.2012 -1.87969 20.4453 2 10V10Z" fill="url(#paint0_linear_1707_62)"/>
<path d="M2.5 11.5V11.5C-0.00020388 19.3131 1.55447 27.8583 6.64636 34.2901L8 36" stroke="#8DDC98" stroke-width="0.5" stroke-linecap="round"/>
<path d="M6 8L13 10L20 8L17 39L21 46H5L9 39L6 8Z" fill="url(#paint1_linear_1707_62)"/>
<path d="M5.752 20.02C5.224 20.02 4.82 19.8987 4.54 19.656C4.26 19.4107 4.12 19.048 4.12 18.568C4.12 18.0907 4.26 17.7293 4.54 17.484C4.82 17.2387 5.224 17.1173 5.752 17.12L7.192 17.128V17.64H5.796C5.44933 17.64 5.192 17.7133 5.024 17.86C4.856 18.0067 4.772 18.2427 4.772 18.568C4.772 18.8933 4.856 19.1307 5.024 19.28C5.192 19.4267 5.44933 19.5 5.796 19.5H7.232V20.02H5.752ZM8.86756 20V18.98L7.35156 17.14H8.14356L9.18756 18.436L10.2276 17.14H11.0196L9.51156 18.976V20H8.86756ZM11.2995 20V17.148L13.7075 17.14C14.0249 17.14 14.2595 17.2067 14.4115 17.34C14.5662 17.4707 14.6435 17.668 14.6435 17.932C14.6435 18.196 14.5555 18.3893 14.3795 18.512C14.4969 18.576 14.5835 18.6613 14.6395 18.768C14.6955 18.872 14.7235 19.0067 14.7235 19.172C14.7235 19.4413 14.6462 19.6467 14.4915 19.788C14.3395 19.9267 14.1049 19.996 13.7875 19.996L11.2995 20ZM13.6315 17.652H11.9395V18.292H13.6315C13.8742 18.292 13.9955 18.1827 13.9955 17.964C13.9955 17.756 13.8742 17.652 13.6315 17.652ZM13.7115 18.804H11.9395V19.484H13.7115C13.9542 19.484 14.0755 19.3693 14.0755 19.14C14.0755 18.916 13.9542 18.804 13.7115 18.804ZM15.1628 20V17.14H18.2988V17.66H15.8028V18.292H18.0668V18.812H15.8028V19.48H18.2988V20H15.1628ZM18.737 20V17.14H21.133C21.429 17.14 21.6584 17.2147 21.821 17.364C21.9864 17.5133 22.069 17.74 22.069 18.044C22.069 18.3027 22.009 18.5053 21.889 18.652C21.769 18.7987 21.5984 18.8907 21.377 18.928L22.037 20H21.309L20.697 18.948H19.377V20H18.737ZM21.057 17.66H19.377V18.424L21.057 18.428C21.1744 18.428 21.2637 18.3987 21.325 18.34C21.389 18.2813 21.421 18.1827 21.421 18.044C21.421 17.9027 21.389 17.804 21.325 17.748C21.2637 17.6893 21.1744 17.66 21.057 17.66Z" fill="white"/>
<path d="M9.252 26.02C8.724 26.02 8.32 25.8987 8.04 25.656C7.76 25.4107 7.62 25.048 7.62 24.568C7.62 24.0907 7.76 23.7293 8.04 23.484C8.32 23.2387 8.724 23.1173 9.252 23.12L10.692 23.128V23.64H9.296C8.94933 23.64 8.692 23.7133 8.524 23.86C8.356 24.0067 8.272 24.2427 8.272 24.568C8.272 24.8933 8.356 25.1307 8.524 25.28C8.692 25.4267 8.94933 25.5 9.296 25.5H10.732V26.02H9.252ZM12.2876 26.02C11.9969 26.02 11.7676 25.9827 11.5996 25.908C11.4316 25.8307 11.3116 25.7147 11.2396 25.56C11.1676 25.4053 11.1316 25.2107 11.1316 24.976V23.14H11.7716V24.976C11.7716 25.1787 11.8182 25.3173 11.9116 25.392C12.0076 25.464 12.1689 25.5 12.3956 25.5H13.1676C13.3942 25.5 13.5542 25.464 13.6476 25.392C13.7436 25.3173 13.7916 25.1787 13.7916 24.976V23.14H14.4316V24.976C14.4316 25.2107 14.3956 25.4053 14.3236 25.56C14.2516 25.7147 14.1316 25.8307 13.9636 25.908C13.7956 25.9827 13.5662 26.02 13.2756 26.02H12.2876ZM14.9909 26V23.14H17.3869C17.6829 23.14 17.9123 23.2147 18.0749 23.364C18.2403 23.5133 18.3229 23.74 18.3229 24.044C18.3229 24.348 18.2403 24.5747 18.0749 24.724C17.9123 24.8733 17.6829 24.948 17.3869 24.948H15.6309V26H14.9909ZM17.3109 23.66H15.6309V24.424L17.3109 24.428C17.4283 24.428 17.5176 24.3987 17.5789 24.34C17.6429 24.2813 17.6749 24.1827 17.6749 24.044C17.6749 23.9027 17.6429 23.804 17.5789 23.748C17.5176 23.6893 17.4283 23.66 17.3109 23.66Z" fill="white"/>
<path d="M8.1149 22.0065C7.99876 22.0065 7.9082 21.9779 7.8432 21.9207C7.7782 21.8626 7.7457 21.7777 7.7457 21.6659C7.7457 21.5532 7.7782 21.4683 7.8432 21.4111C7.9082 21.353 7.99876 21.324 8.1149 21.324H8.5504V21.4735H8.1149C8.05856 21.4735 8.01523 21.4891 7.9849 21.5203C7.95543 21.5515 7.9407 21.6 7.9407 21.6659C7.9407 21.7309 7.95543 21.779 7.9849 21.8102C8.01523 21.8414 8.05856 21.857 8.1149 21.857H8.5634V22.0065H8.1149ZM8.66037 22V21.0705H8.84887V21.3305H9.24407C9.32033 21.3305 9.3758 21.3496 9.41047 21.3877C9.446 21.425 9.46377 21.4744 9.46377 21.5359V22H9.27527V21.558C9.27527 21.506 9.24927 21.48 9.19727 21.48H8.84887V22H8.66037ZM9.77792 22C9.70772 22 9.65399 21.9822 9.61672 21.9467C9.57945 21.9112 9.56082 21.8605 9.56082 21.7946C9.56082 21.7296 9.57945 21.6793 9.61672 21.6438C9.65399 21.6083 9.70772 21.5905 9.77792 21.5905H10.2771V21.5593C10.2771 21.5064 10.2511 21.48 10.1991 21.48H9.64792V21.3305H10.2485C10.3274 21.3305 10.3833 21.3487 10.4162 21.3851C10.4492 21.4206 10.4656 21.4709 10.4656 21.5359V22H9.77792ZM9.81172 21.8505H10.2771V21.74H9.81172C9.79525 21.74 9.78225 21.7452 9.77272 21.7556C9.76405 21.7651 9.75972 21.7781 9.75972 21.7946C9.75972 21.8111 9.76405 21.8245 9.77272 21.8349C9.78225 21.8453 9.79525 21.8505 9.81172 21.8505ZM10.6091 22V21.3305H11.4762C11.5525 21.3305 11.6084 21.3496 11.6439 21.3877C11.6794 21.425 11.6972 21.4744 11.6972 21.5359V22H11.5087V21.5593C11.5087 21.5064 11.4818 21.48 11.4281 21.48H11.2474V22H11.0589V21.48H10.7976V22H10.6091ZM11.8342 22.2925V21.3305H12.3152C12.4313 21.3305 12.5219 21.3591 12.5869 21.4163C12.6519 21.4735 12.6844 21.5563 12.6844 21.6646C12.6844 21.7738 12.6519 21.857 12.5869 21.9142C12.5219 21.9714 12.4313 22 12.3152 22H12.0227V22.2925H11.8342ZM12.3152 21.48H12.0227V21.8505H12.3152C12.3715 21.8505 12.4144 21.8353 12.4439 21.805C12.4742 21.7738 12.4894 21.727 12.4894 21.6646C12.4894 21.6031 12.4742 21.5571 12.4439 21.5268C12.4144 21.4956 12.3715 21.48 12.3152 21.48ZM12.8016 22V21.3305H12.9901V22H12.8016ZM12.8003 21.22V21.0731H12.9914V21.22H12.8003ZM13.4761 22.0065C13.36 22.0065 13.2694 21.9779 13.2044 21.9207C13.1394 21.8626 13.1069 21.7777 13.1069 21.6659C13.1069 21.5532 13.1394 21.4683 13.2044 21.4111C13.2694 21.353 13.36 21.324 13.4761 21.324H13.7166C13.8328 21.324 13.9233 21.353 13.9883 21.4111C14.0533 21.4683 14.0858 21.5532 14.0858 21.6659C14.0858 21.7777 14.0533 21.8626 13.9883 21.9207C13.9233 21.9779 13.8328 22.0065 13.7166 22.0065H13.4761ZM13.4761 21.857H13.7166C13.773 21.857 13.8159 21.8414 13.8453 21.8102C13.8757 21.779 13.8908 21.7309 13.8908 21.6659C13.8908 21.6 13.8757 21.5515 13.8453 21.5203C13.8159 21.4891 13.773 21.4735 13.7166 21.4735H13.4761C13.4198 21.4735 13.3765 21.4891 13.3461 21.5203C13.3167 21.5515 13.3019 21.6 13.3019 21.6659C13.3019 21.7309 13.3167 21.779 13.3461 21.8102C13.3765 21.8414 13.4198 21.857 13.4761 21.857ZM14.2031 22V21.3305H14.7868C14.8631 21.3305 14.9186 21.3496 14.9532 21.3877C14.9888 21.425 15.0065 21.4744 15.0065 21.5359V22H14.818V21.558C14.818 21.506 14.792 21.48 14.74 21.48H14.3916V22H14.2031ZM15.1205 22.0065V21.857H15.7575C15.7939 21.857 15.8121 21.8366 15.8121 21.7959C15.8121 21.756 15.7939 21.7361 15.7575 21.7361H15.3454C15.2683 21.7361 15.2098 21.7188 15.1699 21.6841C15.13 21.6486 15.1101 21.5979 15.1101 21.532C15.1101 21.4653 15.13 21.4141 15.1699 21.3786C15.2106 21.3422 15.2691 21.324 15.3454 21.324H15.9382V21.4735H15.3545C15.3172 21.4735 15.2986 21.4917 15.2986 21.5281C15.2986 21.5463 15.3038 21.5606 15.3142 21.571C15.3246 21.5814 15.338 21.5866 15.3545 21.5866H15.7913C15.8589 21.5866 15.9105 21.6044 15.946 21.6399C15.9824 21.6746 16.0006 21.7253 16.0006 21.792C16.0006 21.8596 15.9824 21.9125 15.946 21.9506C15.9096 21.9879 15.858 22.0065 15.7913 22.0065H15.1205ZM16.1112 22V21.0705H16.2997V21.3305H16.6949C16.7712 21.3305 16.8267 21.3496 16.8613 21.3877C16.8969 21.425 16.9146 21.4744 16.9146 21.5359V22H16.7261V21.558C16.7261 21.506 16.7001 21.48 16.6481 21.48H16.2997V22H16.1112ZM17.0507 22V21.3305H17.2392V22H17.0507ZM17.0494 21.22V21.0731H17.2405V21.22H17.0494ZM17.382 22.2925V21.3305H17.863C17.9792 21.3305 18.0697 21.3591 18.1347 21.4163C18.1997 21.4735 18.2322 21.5563 18.2322 21.6646C18.2322 21.7738 18.1997 21.857 18.1347 21.9142C18.0697 21.9714 17.9792 22 17.863 22H17.5705V22.2925H17.382ZM17.863 21.48H17.5705V21.8505H17.863C17.9194 21.8505 17.9623 21.8353 17.9917 21.805C18.0221 21.7738 18.0372 21.727 18.0372 21.6646C18.0372 21.6031 18.0221 21.5571 17.9917 21.5268C17.9623 21.4956 17.9194 21.48 17.863 21.48Z" fill="white"/>
<path d="M23.5 11.5V11.5C26.0002 19.3131 24.4455 27.8583 19.3536 34.2901L18 36" stroke="#8DDC98" stroke-width="0.5" stroke-linecap="round"/>
<path d="M2.5 11.5L6 14" stroke="#8DDC98" stroke-width="0.5" stroke-linecap="round"/>
<path d="M19.9998 13.9998L23.5002 11.5003" stroke="#8DDC98" stroke-width="0.5" stroke-linecap="round"/>
<path d="M14.5009 10.4991L19 9" stroke="white" stroke-width="0.5" stroke-linecap="round"/>
<path d="M18.5 14.5L19 9" stroke="white" stroke-width="0.5" stroke-linecap="round"/>
<path d="M6.50209 44.9978L11.5001 44.9998" stroke="white" stroke-width="0.5" stroke-linecap="round"/>
<path d="M6.50119 44.9987L10 39" stroke="white" stroke-width="0.5" stroke-linecap="round"/>
<path d="M9 28L9.99992 39.0001" stroke="white" stroke-width="0.5" stroke-linecap="round"/>
<path d="M14.4998 44.9998L19.4972 44.9985" stroke="white" stroke-width="0.5" stroke-linecap="round"/>
<path d="M16 39L19.4983 44.9988" stroke="white" stroke-width="0.5" stroke-linecap="round"/>
<path d="M15.9998 38.9998L17 28" stroke="white" stroke-width="0.5" stroke-linecap="round"/>
<path d="M6.99925 9.00161L11.4998 10.5002" stroke="white" stroke-width="0.5" stroke-linecap="round"/>
<path d="M6.99902 9.00195L7.5 14.5" stroke="white" stroke-width="0.5" stroke-linecap="round"/>
</g>
<defs>
<linearGradient id="paint0_linear_1707_62" x1="2.07202e-07" y1="22.5" x2="26" y2="22.5" gradientUnits="userSpaceOnUse">
<stop stop-color="#17351C"/>
<stop offset="0.272458" stop-color="#1F4C25"/>
<stop offset="0.732225" stop-color="#1F4C25"/>
<stop offset="1" stop-color="#17351C"/>
</linearGradient>
<linearGradient id="paint1_linear_1707_62" x1="5" y1="31.5" x2="21.5" y2="31.5" gradientUnits="userSpaceOnUse">
<stop stop-color="#141A15"/>
<stop offset="0.484258" stop-color="#1B3321"/>
<stop offset="1" stop-color="#141A15"/>
</linearGradient>
<clipPath id="clip0_1707_62">
<rect width="26" height="46" fill="white"/>
</clipPath>
</defs>
</svg>
