<svg width="26" height="45" viewBox="0 0 26 45" fill="none" xmlns="http://www.w3.org/2000/svg">
<path d="M0.05 43.9571V40.5583C8.6333 41.8728 17.3667 41.8728 25.95 40.5583V43.9571C17.3668 45.2732 8.63318 45.2732 0.05 43.9571Z" fill="#404040" stroke="black" stroke-width="0.1"/>
<path d="M25.95 40.5C25.95 40.5361 25.9344 40.576 25.8953 40.6203C25.8561 40.665 25.7953 40.7114 25.7113 40.7587C25.5435 40.8534 25.2927 40.9463 24.9652 41.0356C24.311 41.2141 23.362 41.3754 22.1867 41.511C19.8366 41.7822 16.5886 41.95 13 41.95C9.41144 41.95 6.16345 41.7822 3.81334 41.511C2.63796 41.3754 1.68898 41.2141 1.03476 41.0356C0.707266 40.9463 0.456508 40.8534 0.288672 40.7587C0.204735 40.7114 0.143946 40.665 0.10465 40.6203C0.0656307 40.576 0.05 40.5361 0.05 40.5C0.05 40.4639 0.0656307 40.424 0.10465 40.3797C0.143946 40.335 0.204735 40.2886 0.288672 40.2413C0.456508 40.1466 0.707266 40.0537 1.03476 39.9644C1.68898 39.7859 2.63796 39.6246 3.81334 39.489C6.16345 39.2178 9.41144 39.05 13 39.05C16.5886 39.05 19.8366 39.2178 22.1867 39.489C23.362 39.6246 24.311 39.7859 24.9652 39.9644C25.2927 40.0537 25.5435 40.1466 25.7113 40.2413C25.7953 40.2886 25.8561 40.335 25.8953 40.3797C25.9344 40.424 25.95 40.4639 25.95 40.5Z" fill="#404040" stroke="black" stroke-width="0.1"/>
<path d="M9 32H17L20 40.5C15.3393 40.8329 10.6607 40.8329 6 40.5L9 32Z" fill="url(#paint0_linear_1705_45)"/>
<path d="M0 3.5C8.65388 4.16568 17.3461 4.16568 26 3.5L23.8772 7.75144C22.6324 10.2445 21.7586 12.9061 21.2833 15.6518L19.3939 26.5685C19.1443 28.0107 18.2674 29.2677 17 30H9C7.73264 29.2677 6.8557 28.0107 6.60608 26.5685L4.71666 15.6518C4.24144 12.9061 3.36758 10.2445 2.12277 7.75144L0 3.5Z" fill="url(#paint1_linear_1705_45)"/>
<rect x="8" y="31" width="10" height="1" rx="0.5" fill="#F3C131"/>
<rect x="8" y="30" width="10" height="1" rx="0.5" fill="#CE9921"/>
<path d="M10.3556 10.0526V9.81818H11.992V10.0526H11.3059V12H11.0417V10.0526H10.3556ZM12.2198 12V9.81818H12.484V10.7898H13.6473V9.81818H13.9115V12H13.6473V11.0241H12.484V12H12.2198ZM14.2605 12V9.81818H15.5772V10.0526H14.5247V10.7898H15.5091V11.0241H14.5247V11.7656H15.5943V12H14.2605ZM9.82027 13.5C9.79683 13.4283 9.76594 13.364 9.72759 13.3072C9.68995 13.2496 9.64485 13.2006 9.59229 13.1602C9.54044 13.1197 9.48149 13.0888 9.41544 13.0675C9.34939 13.0462 9.27695 13.0355 9.19811 13.0355C9.06885 13.0355 8.95131 13.0689 8.84548 13.1357C8.73966 13.2024 8.6555 13.3008 8.593 13.4308C8.5305 13.5607 8.49925 13.7202 8.49925 13.9091C8.49925 14.098 8.53085 14.2575 8.59406 14.3874C8.65727 14.5174 8.74286 14.6158 8.85081 14.6825C8.95877 14.7493 9.08022 14.7827 9.21516 14.7827C9.34016 14.7827 9.45024 14.756 9.54541 14.7028C9.64129 14.6488 9.71587 14.5728 9.76914 14.4748C9.82311 14.3761 9.8501 14.2599 9.8501 14.1264L9.93107 14.1435H9.27482V13.9091H10.1058V14.1435C10.1058 14.3232 10.0674 14.4794 9.99073 14.6122C9.91473 14.745 9.80962 14.848 9.67539 14.9212C9.54186 14.9936 9.38845 15.0298 9.21516 15.0298C9.02198 15.0298 8.85223 14.9844 8.70593 14.8935C8.56033 14.8026 8.44669 14.6733 8.36502 14.5057C8.28405 14.3381 8.24357 14.1392 8.24357 13.9091C8.24357 13.7365 8.26665 13.5813 8.31281 13.4435C8.35969 13.305 8.42574 13.1871 8.51097 13.0898C8.5962 12.9925 8.69705 12.918 8.81352 12.8661C8.93 12.8143 9.0582 12.7884 9.19811 12.7884C9.31317 12.7884 9.42041 12.8058 9.51985 12.8406C9.61999 12.8746 9.70912 12.9233 9.78725 12.9865C9.86608 13.049 9.93178 13.1239 9.98433 13.2113C10.0369 13.2979 10.0731 13.3942 10.093 13.5H9.82027ZM10.3783 15V12.8182H11.1155C11.286 12.8182 11.4259 12.8473 11.5352 12.9055C11.6446 12.9631 11.7256 13.0423 11.7781 13.1431C11.8307 13.244 11.857 13.3587 11.857 13.4872C11.857 13.6158 11.8307 13.7298 11.7781 13.8292C11.7256 13.9286 11.645 14.0067 11.5363 14.0636C11.4276 14.1197 11.2888 14.1477 11.1198 14.1477H10.5232V13.9091H11.1112C11.2277 13.9091 11.3215 13.892 11.3925 13.858C11.4642 13.8239 11.5161 13.7756 11.548 13.7131C11.5807 13.6499 11.597 13.5746 11.597 13.4872C11.597 13.3999 11.5807 13.3235 11.548 13.2582C11.5154 13.1928 11.4632 13.1424 11.3914 13.1069C11.3197 13.0707 11.2249 13.0526 11.107 13.0526H10.6425V15H10.3783ZM11.4053 14.0199L11.9422 15H11.6354L11.107 14.0199H11.4053ZM12.2067 15H11.9297L12.7309 12.8182H13.0036L13.8047 15H13.5277L12.8758 13.1634H12.8587L12.2067 15ZM12.309 14.1477H13.4255V14.3821H12.309V14.1477ZM15.6947 12.8182V15H15.439L14.2501 13.2869H14.2288V15H13.9646V12.8182H14.2203L15.4134 14.5355H15.4347V12.8182H15.6947ZM16.7167 15H16.0434V12.8182H16.7465C16.9581 12.8182 17.1392 12.8619 17.2898 12.9492C17.4404 13.0359 17.5558 13.1605 17.636 13.3232C17.7163 13.4851 17.7564 13.679 17.7564 13.9048C17.7564 14.1321 17.7159 14.3278 17.635 14.4918C17.554 14.6552 17.4361 14.7809 17.2813 14.869C17.1265 14.9563 16.9383 15 16.7167 15ZM16.3076 14.7656H16.6996C16.88 14.7656 17.0295 14.7308 17.1481 14.6612C17.2667 14.5916 17.3552 14.4925 17.4134 14.364C17.4716 14.2354 17.5008 14.0824 17.5008 13.9048C17.5008 13.7287 17.472 13.5771 17.4145 13.4499C17.3569 13.3221 17.271 13.2241 17.1566 13.1559C17.0423 13.087 16.8999 13.0526 16.7294 13.0526H16.3076V14.7656ZM10.5101 16.3636C10.4973 16.2557 10.4455 16.1719 10.3546 16.1122C10.2637 16.0526 10.1521 16.0227 10.02 16.0227C9.92345 16.0227 9.83894 16.0384 9.76649 16.0696C9.69476 16.1009 9.63865 16.1438 9.59817 16.1985C9.5584 16.2532 9.53851 16.3153 9.53851 16.3849C9.53851 16.4432 9.55236 16.4933 9.58006 16.5352C9.60847 16.5763 9.64469 16.6108 9.68872 16.6385C9.73276 16.6655 9.77892 16.6879 9.82722 16.7056C9.87551 16.7227 9.9199 16.7365 9.96039 16.7472L10.182 16.8068C10.2388 16.8217 10.302 16.8423 10.3716 16.8686C10.4419 16.8949 10.509 16.9308 10.573 16.9762C10.6376 17.021 10.6909 17.0785 10.7328 17.1488C10.7747 17.2191 10.7956 17.3054 10.7956 17.4077C10.7956 17.5256 10.7647 17.6321 10.7029 17.7273C10.6418 17.8224 10.5524 17.8981 10.4345 17.9542C10.3173 18.0103 10.1749 18.0384 10.0073 18.0384C9.85101 18.0384 9.71571 18.0131 9.60137 17.9627C9.48773 17.9123 9.39824 17.842 9.3329 17.7518C9.26827 17.6616 9.23169 17.5568 9.22317 17.4375H9.4959C9.503 17.5199 9.5307 17.5881 9.57899 17.642C9.628 17.6953 9.68979 17.7351 9.76436 17.7614C9.83965 17.7869 9.92061 17.7997 10.0073 17.7997C10.1081 17.7997 10.1987 17.7834 10.2789 17.7507C10.3592 17.7173 10.4227 17.6712 10.4696 17.6122C10.5165 17.5526 10.5399 17.483 10.5399 17.4034C10.5399 17.331 10.5197 17.272 10.4792 17.2266C10.4387 17.1811 10.3855 17.1442 10.3194 17.1158C10.2534 17.0874 10.182 17.0625 10.1053 17.0412L9.83681 16.9645C9.66635 16.9155 9.53141 16.8455 9.43198 16.7546C9.33254 16.6637 9.28283 16.5447 9.28283 16.3977C9.28283 16.2756 9.31585 16.169 9.38191 16.0781C9.44867 15.9865 9.53816 15.9155 9.65037 15.8651C9.7633 15.8139 9.88936 15.7884 10.0286 15.7884C10.1692 15.7884 10.2942 15.8136 10.4036 15.864C10.5129 15.9137 10.5996 15.9819 10.6635 16.0685C10.7281 16.1552 10.7622 16.2536 10.7658 16.3636H10.5101ZM11.05 18V15.8182H11.3142V17.7656H12.3284V18H11.05ZM12.7847 18H12.5077L13.3088 15.8182H13.5816L14.3827 18H14.1057L13.4537 16.1634H13.4367L12.7847 18ZM12.887 17.1477H14.0034V17.3821H12.887V17.1477ZM14.5425 15.8182H14.8579L15.5994 17.6293H15.6249L16.3664 15.8182H16.6817V18H16.4346V16.3423H16.4133L15.7315 18H15.4928L14.811 16.3423H14.7897V18H14.5425V15.8182ZM12.0446 19.5H11.7804C11.7648 19.424 11.7374 19.3572 11.6984 19.2997C11.66 19.2422 11.6131 19.1939 11.5578 19.1548C11.5031 19.1151 11.4423 19.0852 11.3756 19.0653C11.3088 19.0455 11.2392 19.0355 11.1668 19.0355C11.0347 19.0355 10.915 19.0689 10.8078 19.1357C10.7012 19.2024 10.6163 19.3008 10.5531 19.4308C10.4906 19.5607 10.4594 19.7202 10.4594 19.9091C10.4594 20.098 10.4906 20.2575 10.5531 20.3874C10.6163 20.5174 10.7012 20.6158 10.8078 20.6825C10.915 20.7493 11.0347 20.7827 11.1668 20.7827C11.2392 20.7827 11.3088 20.7727 11.3756 20.7528C11.4423 20.733 11.5031 20.7035 11.5578 20.6644C11.6131 20.6246 11.66 20.576 11.6984 20.5185C11.7374 20.4602 11.7648 20.3935 11.7804 20.3182H12.0446C12.0247 20.4297 11.9885 20.5295 11.9359 20.6175C11.8834 20.7056 11.8181 20.7805 11.7399 20.8423C11.6618 20.9034 11.5741 20.9499 11.4768 20.9819C11.3802 21.0138 11.2769 21.0298 11.1668 21.0298C10.9807 21.0298 10.8152 20.9844 10.6703 20.8935C10.5254 20.8026 10.4114 20.6733 10.3283 20.5057C10.2453 20.3381 10.2037 20.1392 10.2037 19.9091C10.2037 19.679 10.2453 19.4801 10.3283 19.3125C10.4114 19.1449 10.5254 19.0156 10.6703 18.9247C10.8152 18.8338 10.9807 18.7884 11.1668 18.7884C11.2769 18.7884 11.3802 18.8043 11.4768 18.8363C11.5741 18.8683 11.6618 18.9151 11.7399 18.9769C11.8181 19.038 11.8834 19.1126 11.9359 19.2006C11.9885 19.288 12.0247 19.3878 12.0446 19.5ZM13.7234 18.8182H13.9876V20.2628C13.9876 20.4119 13.9524 20.5451 13.8821 20.6623C13.8125 20.7788 13.7141 20.8707 13.587 20.9382C13.4599 21.005 13.3107 21.0384 13.1396 21.0384C12.9684 21.0384 12.8192 21.005 12.6921 20.9382C12.565 20.8707 12.4663 20.7788 12.396 20.6623C12.3263 20.5451 12.2915 20.4119 12.2915 20.2628V18.8182H12.5558V20.2415C12.5558 20.348 12.5792 20.4428 12.6261 20.5259C12.6729 20.6083 12.7397 20.6733 12.8263 20.7209C12.9137 20.7678 13.0181 20.7912 13.1396 20.7912C13.261 20.7912 13.3654 20.7678 13.4528 20.7209C13.5401 20.6733 13.6069 20.6083 13.6531 20.5259C13.6999 20.4428 13.7234 20.348 13.7234 20.2415V18.8182ZM14.3352 21V18.8182H15.0724C15.2436 18.8182 15.3835 18.8491 15.4921 18.9109C15.6015 18.9719 15.6825 19.0547 15.735 19.1591C15.7876 19.2635 15.8139 19.38 15.8139 19.5085C15.8139 19.6371 15.7876 19.7539 15.735 19.859C15.6832 19.9641 15.6029 20.0479 15.4943 20.1104C15.3856 20.1722 15.2464 20.2031 15.0767 20.2031H14.5482V19.9688H15.0681C15.1853 19.9688 15.2794 19.9485 15.3505 19.908C15.4215 19.8675 15.473 19.8129 15.5049 19.744C15.5376 19.6744 15.5539 19.5959 15.5539 19.5085C15.5539 19.4212 15.5376 19.343 15.5049 19.2741C15.473 19.2053 15.4211 19.1513 15.3494 19.1122C15.2777 19.0724 15.1825 19.0526 15.0639 19.0526H14.5994V21H14.3352Z" fill="url(#paint2_linear_1705_45)"/>
<path d="M25.8817 3.49749C25.8852 3.49833 25.8886 3.49917 25.8919 3.5C25.8886 3.50083 25.8852 3.50167 25.8817 3.50251C25.8148 3.51863 25.7142 3.53493 25.5825 3.55114C25.3197 3.58351 24.9393 3.61483 24.4704 3.64472C23.5329 3.70449 22.2451 3.75834 20.8446 3.80358C18.0437 3.89405 14.7943 3.95 13 3.95C11.2057 3.95 7.9563 3.89421 5.15542 3.80391C3.75494 3.75876 2.46711 3.70499 1.52961 3.64528C1.06069 3.61542 0.680276 3.58412 0.417461 3.55177C0.285767 3.53557 0.185212 3.51928 0.11826 3.50316C0.114754 3.50232 0.111369 3.50148 0.108103 3.50065C0.111371 3.49982 0.114758 3.49898 0.118266 3.49814C0.185219 3.48201 0.285774 3.46571 0.417468 3.44949C0.680282 3.41711 1.0607 3.38576 1.52961 3.35583C2.46712 3.296 3.75495 3.24207 5.15542 3.19675C7.9563 3.10612 11.2057 3.05 13 3.05C14.7943 3.05 18.0437 3.10595 20.8446 3.19642C22.2451 3.24166 23.5329 3.29551 24.4704 3.35528C24.9393 3.38517 25.3197 3.41649 25.5825 3.44886C25.7142 3.46507 25.8148 3.48137 25.8817 3.49749Z" fill="#FFF6BC" stroke="#D29E24" stroke-width="0.1"/>
<path d="M0.5 42.5V42.5C8.78067 43.8249 17.2193 43.8249 25.5 42.5V42.5" stroke="url(#paint3_linear_1705_45)" stroke-dasharray="2 1"/>
<circle cx="16" cy="26" r="0.95" stroke="#A57E23" stroke-width="0.1"/>
<path d="M19.2933 26.9036C19.1369 26.9544 18.97 26.9637 18.8089 26.9306C18.6478 26.8975 18.4981 26.8232 18.3743 26.7149C18.2506 26.6065 18.1571 26.468 18.1029 26.3127C18.0488 26.1574 18.0359 25.9907 18.0655 25.829C18.0951 25.6672 18.1662 25.5159 18.2718 25.3899C18.3774 25.2638 18.514 25.1673 18.668 25.1099C18.8221 25.0524 18.9885 25.0359 19.1508 25.0621C19.3132 25.0882 19.466 25.156 19.5943 25.2588" stroke="#A57E23" stroke-width="0.1"/>
<path d="M17.95 26C17.95 26.2701 17.8952 26.5121 17.8088 26.6847C17.721 26.8604 17.6089 26.95 17.5 26.95C17.3911 26.95 17.279 26.8604 17.1912 26.6847C17.1048 26.5121 17.05 26.2701 17.05 26C17.05 25.7299 17.1048 25.4879 17.1912 25.3153C17.279 25.1396 17.3911 25.05 17.5 25.05C17.6089 25.05 17.721 25.1396 17.8088 25.3153C17.8952 25.4879 17.95 25.7299 17.95 26Z" stroke="#A57E23" stroke-width="0.1"/>
<path d="M8.95 26C8.95 26.2701 8.89516 26.5121 8.80883 26.6847C8.72101 26.8604 8.60893 26.95 8.5 26.95C8.39107 26.95 8.27899 26.8604 8.19117 26.6847C8.10484 26.5121 8.05 26.2701 8.05 26C8.05 25.7299 8.10484 25.4879 8.19117 25.3153C8.27899 25.1396 8.39107 25.05 8.5 25.05C8.60893 25.05 8.72101 25.1396 8.80883 25.3153C8.89516 25.4879 8.95 25.7299 8.95 26Z" stroke="#A57E23" stroke-width="0.1"/>
<circle cx="10" cy="26" r="0.95" stroke="#A57E23" stroke-width="0.1"/>
<path d="M6.41292 25.2531C6.54189 25.1517 6.6949 25.0855 6.85707 25.0608C7.01925 25.0361 7.18504 25.0539 7.33833 25.1123C7.49161 25.1707 7.62715 25.2678 7.73176 25.3942C7.83637 25.5205 7.90648 25.6718 7.93526 25.8333C7.96404 25.9948 7.95052 26.161 7.896 26.3157C7.84149 26.4704 7.74784 26.6084 7.62418 26.7162C7.50052 26.8239 7.35106 26.8979 7.19034 26.9307C7.02963 26.9636 6.86315 26.9543 6.7071 26.9037" stroke="#A57E23" stroke-width="0.1"/>
<circle cx="13" cy="26" r="0.95" stroke="#A57E23" stroke-width="0.1"/>
<path d="M14.95 26C14.95 26.2701 14.8952 26.5121 14.8088 26.6847C14.721 26.8604 14.6089 26.95 14.5 26.95C14.3911 26.95 14.279 26.8604 14.1912 26.6847C14.1048 26.5121 14.05 26.2701 14.05 26C14.05 25.7299 14.1048 25.4879 14.1912 25.3153C14.279 25.1396 14.3911 25.05 14.5 25.05C14.6089 25.05 14.721 25.1396 14.8088 25.3153C14.8952 25.4879 14.95 25.7299 14.95 26Z" stroke="#A57E23" stroke-width="0.1"/>
<path d="M11.95 26C11.95 26.2701 11.8952 26.5121 11.8088 26.6847C11.721 26.8604 11.6089 26.95 11.5 26.95C11.3911 26.95 11.279 26.8604 11.1912 26.6847C11.1048 26.5121 11.05 26.2701 11.05 26C11.05 25.7299 11.1048 25.4879 11.1912 25.3153C11.279 25.1396 11.3911 25.05 11.5 25.05C11.6089 25.05 11.721 25.1396 11.8088 25.3153C11.8952 25.4879 11.95 25.7299 11.95 26Z" stroke="#A57E23" stroke-width="0.1"/>
<circle cx="16" cy="6" r="0.95" stroke="#A57E23" stroke-width="0.1"/>
<circle cx="19" cy="6" r="0.95" stroke="#A57E23" stroke-width="0.1"/>
<path d="M20.95 6C20.95 6.27006 20.8952 6.51209 20.8088 6.68475C20.721 6.8604 20.6089 6.95 20.5 6.95C20.3911 6.95 20.279 6.8604 20.1912 6.68475C20.1048 6.51209 20.05 6.27006 20.05 6C20.05 5.72994 20.1048 5.48791 20.1912 5.31525C20.279 5.1396 20.3911 5.05 20.5 5.05C20.6089 5.05 20.721 5.1396 20.8088 5.31525C20.8952 5.48791 20.95 5.72994 20.95 6Z" stroke="#A57E23" stroke-width="0.1"/>
<path d="M23.95 6C23.95 6.27006 23.8952 6.51209 23.8088 6.68475C23.721 6.8604 23.6089 6.95 23.5 6.95C23.3911 6.95 23.279 6.8604 23.1912 6.68475C23.1048 6.51209 23.05 6.27006 23.05 6C23.05 5.72994 23.1048 5.48791 23.1912 5.31525C23.279 5.1396 23.3911 5.05 23.5 5.05C23.6089 5.05 23.721 5.1396 23.8088 5.31525C23.8952 5.48791 23.95 5.72994 23.95 6Z" stroke="#A57E23" stroke-width="0.1"/>
<path d="M17.95 6C17.95 6.27006 17.8952 6.51209 17.8088 6.68475C17.721 6.8604 17.6089 6.95 17.5 6.95C17.3911 6.95 17.279 6.8604 17.1912 6.68475C17.1048 6.51209 17.05 6.27006 17.05 6C17.05 5.72994 17.1048 5.48791 17.1912 5.31525C17.279 5.1396 17.3911 5.05 17.5 5.05C17.6089 5.05 17.721 5.1396 17.8088 5.31525C17.8952 5.48791 17.95 5.72994 17.95 6Z" stroke="#A57E23" stroke-width="0.1"/>
<circle cx="22" cy="6" r="0.95" stroke="#A57E23" stroke-width="0.1"/>
<path d="M24.3789 6.71885C24.2193 6.58091 24.1101 6.39374 24.0686 6.18687C24.0271 5.98001 24.0556 5.76521 24.1497 5.57636C24.2438 5.38751 24.3981 5.23535 24.5882 5.14389C24.7783 5.05243 24.9935 5.02687 25.1998 5.07125" stroke="#A57E23" stroke-width="0.1"/>
<path d="M8.95 6C8.95 6.27006 8.89516 6.51209 8.80883 6.68475C8.72101 6.8604 8.60893 6.95 8.5 6.95C8.39107 6.95 8.27899 6.8604 8.19117 6.68475C8.10484 6.51209 8.05 6.27006 8.05 6C8.05 5.72994 8.10484 5.48791 8.19117 5.31525C8.27899 5.1396 8.39107 5.05 8.5 5.05C8.60893 5.05 8.72101 5.1396 8.80883 5.31525C8.89516 5.48791 8.95 5.72994 8.95 6Z" stroke="#A57E23" stroke-width="0.1"/>
<path d="M5.95 6C5.95 6.27006 5.89516 6.51209 5.80883 6.68475C5.72101 6.8604 5.60893 6.95 5.5 6.95C5.39107 6.95 5.27899 6.8604 5.19117 6.68475C5.10484 6.51209 5.05 6.27006 5.05 6C5.05 5.72994 5.10484 5.48791 5.19117 5.31525C5.27899 5.1396 5.39107 5.05 5.5 5.05C5.60893 5.05 5.72101 5.1396 5.80883 5.31525C5.89516 5.48791 5.95 5.72994 5.95 6Z" stroke="#A57E23" stroke-width="0.1"/>
<path d="M2.95 6C2.95 6.27006 2.89516 6.51209 2.80883 6.68475C2.72101 6.8604 2.60893 6.95 2.5 6.95C2.39107 6.95 2.27899 6.8604 2.19117 6.68475C2.10484 6.51209 2.05 6.27006 2.05 6C2.05 5.72994 2.10484 5.48791 2.19117 5.31525C2.27899 5.1396 2.39107 5.05 2.5 5.05C2.60893 5.05 2.72101 5.1396 2.80883 5.31525C2.89516 5.48791 2.95 5.72994 2.95 6Z" stroke="#A57E23" stroke-width="0.1"/>
<circle cx="10" cy="6" r="0.95" stroke="#A57E23" stroke-width="0.1"/>
<circle cx="13" cy="6" r="0.95" stroke="#A57E23" stroke-width="0.1"/>
<path d="M14.95 6C14.95 6.27006 14.8952 6.51209 14.8088 6.68475C14.721 6.8604 14.6089 6.95 14.5 6.95C14.3911 6.95 14.279 6.8604 14.1912 6.68475C14.1048 6.51209 14.05 6.27006 14.05 6C14.05 5.72994 14.1048 5.48791 14.1912 5.31525C14.279 5.1396 14.3911 5.05 14.5 5.05C14.6089 5.05 14.721 5.1396 14.8088 5.31525C14.8952 5.48791 14.95 5.72994 14.95 6Z" stroke="#A57E23" stroke-width="0.1"/>
<path d="M11.95 6C11.95 6.27006 11.8952 6.51209 11.8088 6.68475C11.721 6.8604 11.6089 6.95 11.5 6.95C11.3911 6.95 11.279 6.8604 11.1912 6.68475C11.1048 6.51209 11.05 6.27006 11.05 6C11.05 5.72994 11.1048 5.48791 11.1912 5.31525C11.279 5.1396 11.3911 5.05 11.5 5.05C11.6089 5.05 11.721 5.1396 11.8088 5.31525C11.8952 5.48791 11.95 5.72994 11.95 6Z" stroke="#A57E23" stroke-width="0.1"/>
<circle cx="4" cy="6" r="0.95" stroke="#A57E23" stroke-width="0.1"/>
<path d="M0.796744 5.072C1.00279 5.02687 1.218 5.0516 1.40845 5.14229C1.59889 5.23298 1.75373 5.38447 1.84857 5.57288C1.9434 5.76129 1.97284 5.97591 1.93223 6.1829C1.89162 6.38988 1.78328 6.57747 1.62428 6.71608" stroke="#A57E23" stroke-width="0.1"/>
<circle cx="7" cy="6" r="0.95" stroke="#A57E23" stroke-width="0.1"/>
<defs>
<linearGradient id="paint0_linear_1705_45" x1="5.5" y1="37.5" x2="19.5" y2="35" gradientUnits="userSpaceOnUse">
<stop stop-color="#EACB67"/>
<stop offset="0.36" stop-color="#D39F22"/>
<stop offset="1" stop-color="#F3CA4B"/>
</linearGradient>
<linearGradient id="paint1_linear_1705_45" x1="2.31802e-07" y1="13.2444" x2="26.3093" y2="18.2903" gradientUnits="userSpaceOnUse">
<stop stop-color="#F2D97B"/>
<stop offset="0.371366" stop-color="#D19C21"/>
<stop offset="0.641686" stop-color="#F3C835"/>
<stop offset="0.9375" stop-color="#F3CD60"/>
</linearGradient>
<linearGradient id="paint2_linear_1705_45" x1="7" y1="14" x2="16" y2="15" gradientUnits="userSpaceOnUse">
<stop stop-color="#866722"/>
<stop offset="1" stop-color="#AF8624"/>
</linearGradient>
<linearGradient id="paint3_linear_1705_45" x1="0.5" y1="42.5" x2="25.5" y2="42.5" gradientUnits="userSpaceOnUse">
<stop stop-color="#C0C0C0" stop-opacity="0.6"/>
<stop offset="0.489583" stop-color="#C0C0C0"/>
<stop offset="1" stop-color="#C0C0C0" stop-opacity="0.59"/>
</linearGradient>
</defs>
</svg>
