<svg width="120" height="200" viewBox="0 0 30 50" fill="none" xmlns="http://www.w3.org/2000/svg">
<path d="M15 37L23 49C17.6873 49.6641 12.3127 49.6641 7 49L15 37Z" fill="url(#paint0_angular_1649_27)"/>
<path d="M2 3H4L3.69059 7.33169C2.92549 18.0431 6.25247 28.6459 13 37C5.32285 28.6831 1.30314 17.634 1.84151 6.32822L2 3Z" fill="black"/>
<path d="M26 3H28L28.1585 6.32822C28.6969 17.634 24.6771 28.6831 17 37C23.7475 28.6459 27.0745 18.0431 26.3094 7.33169L26 3Z" fill="black"/>
<rect x="14" y="3" width="2" height="7" fill="#2D2D2D"/>
<path d="M8 3H10C9.33499 9.65009 9.33499 16.3499 10 23H8C7.33499 16.3499 7.33499 9.65008 8 3Z" fill="black"/>
<path d="M22 23H20C20.665 16.3499 20.665 9.65009 20 3H22C22.665 9.65008 22.665 16.3499 22 23Z" fill="#4E4E4E"/>
<path d="M5 8C11.6501 8.66501 18.3499 8.66501 25 8V11.1339C25 20.6997 21.4346 29.9219 15 37C8.5654 29.9219 5 20.6997 5 11.1339V8Z" fill="url(#paint1_radial_1649_27)"/>
<path d="M11.38 21.245C11.3233 21.245 11.2633 21.225 11.2 21.185C11.1367 21.145 11.105 21.0833 11.105 21C11.105 20.9667 11.125 20.91 11.165 20.83C11.2083 20.75 11.2633 20.655 11.33 20.545C11.4 20.435 11.475 20.32 11.555 20.2C11.635 20.08 11.715 19.9633 11.795 19.85C11.8583 19.76 11.94 19.6517 12.04 19.525C12.14 19.3983 12.2467 19.2633 12.36 19.12C12.4733 18.9767 12.5833 18.8333 12.69 18.69C12.7967 18.5467 12.89 18.415 12.97 18.295C13.0167 18.225 13.0567 18.1617 13.09 18.105C13.1233 18.045 13.14 17.9933 13.14 17.95C13.14 17.91 13.1167 17.8783 13.07 17.855C13.0267 17.8317 12.9517 17.82 12.845 17.82C12.7483 17.82 12.6167 17.835 12.45 17.865C12.2833 17.8917 12.0967 17.9317 11.89 17.985C11.6833 18.035 11.47 18.095 11.25 18.165C11.0333 18.235 10.82 18.3117 10.61 18.395C10.4033 18.475 10.215 18.56 10.045 18.65C9.875 18.7367 9.73833 18.825 9.635 18.915C9.57833 18.965 9.55 19.01 9.55 19.05C9.55 19.1067 9.59333 19.135 9.68 19.135C9.69667 19.145 9.705 19.155 9.705 19.165C9.705 19.1883 9.67167 19.195 9.605 19.185C9.57833 19.1783 9.53333 19.16 9.47 19.13C9.41 19.0967 9.35333 19.0567 9.3 19.01C9.25 18.96 9.225 18.9117 9.225 18.865C9.225 18.8283 9.25333 18.7867 9.31 18.74C9.36667 18.6933 9.43833 18.645 9.525 18.595C9.615 18.545 9.70667 18.4983 9.8 18.455C9.89667 18.4083 9.98333 18.37 10.06 18.34C10.14 18.3067 10.1983 18.2833 10.235 18.27C10.4217 18.2033 10.6117 18.1367 10.805 18.07C10.9983 18.0033 11.1933 17.9483 11.39 17.905C11.4567 17.8883 11.5617 17.865 11.705 17.835C11.8517 17.805 12.015 17.7783 12.195 17.755C12.3783 17.7283 12.5567 17.715 12.73 17.715C12.87 17.715 12.9983 17.7283 13.115 17.755C13.2317 17.7783 13.325 17.82 13.395 17.88C13.465 17.9367 13.5 18.0183 13.5 18.125C13.5 18.185 13.4933 18.235 13.48 18.275C13.47 18.315 13.45 18.3567 13.42 18.4C13.3933 18.44 13.3533 18.4967 13.3 18.57C13.2267 18.6767 13.1283 18.8 13.005 18.94C12.885 19.08 12.7533 19.23 12.61 19.39C12.47 19.55 12.3333 19.7133 12.2 19.88C12.0667 20.0433 11.95 20.2033 11.85 20.36C11.8367 20.3767 11.8283 20.3967 11.825 20.42C11.825 20.44 11.8333 20.44 11.85 20.42C11.9167 20.3467 12.0117 20.2467 12.135 20.12C12.2583 19.9933 12.3983 19.8567 12.555 19.71C12.7117 19.56 12.875 19.415 13.045 19.275C13.215 19.135 13.38 19.015 13.54 18.915C13.6567 18.8383 13.775 18.7783 13.895 18.735C14.015 18.6917 14.1167 18.67 14.2 18.67C14.2433 18.67 14.2833 18.6867 14.32 18.72C14.36 18.75 14.3917 18.785 14.415 18.825C14.4417 18.865 14.455 18.8983 14.455 18.925C14.455 18.9917 14.425 19.08 14.365 19.19C14.3083 19.2967 14.235 19.4183 14.145 19.555C14.0583 19.6917 13.97 19.835 13.88 19.985C13.7933 20.135 13.7183 20.285 13.655 20.435C13.5917 20.585 13.5567 20.7283 13.55 20.865C13.4767 20.8717 13.425 20.8533 13.395 20.81C13.3683 20.7633 13.355 20.7033 13.355 20.63C13.355 20.5567 13.365 20.48 13.385 20.4C13.4217 20.23 13.4733 20.0767 13.54 19.94C13.6067 19.8 13.6783 19.6633 13.755 19.53C13.8317 19.3967 13.9017 19.2533 13.965 19.1C13.995 19.0233 14.01 18.9667 14.01 18.93C14.01 18.88 13.9867 18.855 13.94 18.855C13.8567 18.855 13.7167 18.93 13.52 19.08C13.4133 19.1633 13.29 19.26 13.15 19.37C13.01 19.4767 12.8817 19.5883 12.765 19.705C12.5517 19.9183 12.3283 20.155 12.095 20.415C11.865 20.675 11.6617 20.9383 11.485 21.205C11.4683 21.2317 11.4333 21.245 11.38 21.245ZM14.595 21.23C14.5717 21.23 14.5283 21.2133 14.465 21.18C14.4017 21.1467 14.3417 21.1083 14.285 21.065C14.235 21.0283 14.21 20.9633 14.21 20.87C14.21 20.7833 14.2267 20.6833 14.26 20.57C14.2967 20.4533 14.3383 20.3367 14.385 20.22C14.435 20.1033 14.4817 20 14.525 19.91C14.5717 19.8167 14.6067 19.75 14.63 19.71C14.6767 19.6233 14.7 19.57 14.7 19.55C14.7 19.52 14.675 19.5217 14.625 19.555C14.5783 19.5883 14.515 19.6433 14.435 19.72C14.3583 19.7967 14.2767 19.885 14.19 19.985C14.1033 20.085 14.02 20.1883 13.94 20.295C13.86 20.3983 13.7933 20.495 13.74 20.585C13.7167 20.6183 13.6983 20.635 13.685 20.635C13.6717 20.635 13.665 20.6267 13.665 20.61C13.665 20.6 13.6733 20.575 13.69 20.535C13.7 20.5117 13.7217 20.475 13.755 20.425C13.7883 20.3717 13.825 20.315 13.865 20.255C13.905 20.1917 13.9417 20.135 13.975 20.085C14.0117 20.035 14.035 20.0033 14.045 19.99C14.1817 19.8033 14.3233 19.6317 14.47 19.475C14.6167 19.315 14.77 19.1583 14.93 19.005C14.9667 19.0283 15.0233 19.04 15.1 19.04C15.18 19.04 15.2417 19.0567 15.285 19.09C15.3017 19.1033 15.31 19.125 15.31 19.155C15.31 19.2117 15.2833 19.2917 15.23 19.395C15.1767 19.4983 15.11 19.615 15.03 19.745C14.9533 19.8717 14.8733 20 14.79 20.13C14.7067 20.26 14.635 20.3817 14.575 20.495C14.515 20.605 14.4767 20.695 14.46 20.765C14.4567 20.7817 14.4533 20.7983 14.45 20.815C14.45 20.8317 14.45 20.8483 14.45 20.865C14.45 20.9117 14.4583 20.9533 14.475 20.99C14.4917 21.0233 14.52 21.04 14.56 21.04C14.5933 21.04 14.6283 21.0283 14.665 21.005C14.6983 20.9783 14.74 20.94 14.79 20.89C14.84 20.8367 14.8817 20.7983 14.915 20.775C14.9317 20.7617 14.945 20.7533 14.955 20.75C14.965 20.7467 14.9633 20.7567 14.95 20.78C14.9233 20.8133 14.8917 20.8667 14.855 20.94C14.8217 21.0133 14.7833 21.08 14.74 21.14C14.6967 21.2 14.6483 21.23 14.595 21.23ZM15.2624 21.055C15.209 21.055 15.164 21.0367 15.1274 21C15.094 20.9667 15.069 20.9267 15.0524 20.88C15.0357 20.8333 15.0274 20.7933 15.0274 20.76C15.0274 20.6467 15.0624 20.5267 15.1324 20.4C15.2024 20.2733 15.2924 20.155 15.4024 20.045C15.5157 19.935 15.634 19.845 15.7574 19.775C15.8807 19.705 15.9957 19.67 16.1024 19.67C16.179 19.67 16.2557 19.7217 16.3324 19.825C16.339 19.835 16.3457 19.8483 16.3524 19.865C16.3624 19.8817 16.3674 19.8983 16.3674 19.915C16.3674 19.945 16.3557 19.965 16.3324 19.975C16.329 19.9783 16.3207 19.9683 16.3074 19.945C16.2974 19.9183 16.2624 19.905 16.2024 19.905C16.1457 19.905 16.0707 19.9317 15.9774 19.985C15.884 20.0383 15.7857 20.1083 15.6824 20.195C15.5824 20.2817 15.4907 20.375 15.4074 20.475C15.3274 20.575 15.269 20.6717 15.2324 20.765C15.2257 20.7883 15.219 20.8117 15.2124 20.835C15.2057 20.8583 15.2024 20.8783 15.2024 20.895C15.2024 20.925 15.2124 20.94 15.2324 20.94C15.2524 20.94 15.279 20.9283 15.3124 20.905C15.3824 20.855 15.4557 20.7933 15.5324 20.72C15.609 20.6433 15.6824 20.565 15.7524 20.485C15.8257 20.4017 15.8874 20.3233 15.9374 20.25C15.9874 20.1767 16.019 20.1167 16.0324 20.07C16.039 20.0433 16.0774 20.03 16.1474 20.03C16.204 20.03 16.2524 20.0433 16.2924 20.07C16.3324 20.0933 16.3424 20.12 16.3224 20.15C16.2624 20.24 16.204 20.335 16.1474 20.435C16.0907 20.5317 16.049 20.63 16.0224 20.73C16.019 20.7433 16.0157 20.755 16.0124 20.765C16.0124 20.775 16.0124 20.7833 16.0124 20.79C16.0124 20.8233 16.0257 20.84 16.0524 20.84C16.0824 20.84 16.1157 20.825 16.1524 20.795C16.2224 20.7283 16.2957 20.6433 16.3724 20.54C16.4524 20.4333 16.534 20.3283 16.6174 20.225C16.6474 20.1917 16.6674 20.175 16.6774 20.175C16.6874 20.175 16.6924 20.1833 16.6924 20.2C16.6924 20.2133 16.689 20.2267 16.6824 20.24C16.669 20.2733 16.6507 20.3083 16.6274 20.345C16.604 20.3783 16.5824 20.4083 16.5624 20.435C16.5457 20.4583 16.5174 20.5 16.4774 20.56C16.4374 20.62 16.3907 20.6833 16.3374 20.75C16.284 20.8167 16.229 20.875 16.1724 20.925C16.1157 20.9717 16.0624 20.995 16.0124 20.995C15.9424 20.995 15.8857 20.9733 15.8424 20.93C15.8024 20.8833 15.7824 20.8417 15.7824 20.805C15.7824 20.7583 15.784 20.7267 15.7874 20.71C15.794 20.6767 15.804 20.6367 15.8174 20.59C15.834 20.5433 15.849 20.4983 15.8624 20.455C15.8357 20.4917 15.7957 20.5433 15.7424 20.61C15.689 20.6767 15.6307 20.745 15.5674 20.815C15.5074 20.8817 15.449 20.9383 15.3924 20.985C15.3357 21.0317 15.2924 21.055 15.2624 21.055ZM16.77 21C16.6867 21 16.6117 20.9817 16.545 20.945C16.4784 20.905 16.445 20.8433 16.445 20.76C16.445 20.73 16.45 20.6983 16.46 20.665C16.4734 20.6183 16.4917 20.5883 16.515 20.575C16.5417 20.5583 16.5534 20.5617 16.55 20.585C16.5434 20.6183 16.55 20.6483 16.57 20.675C16.59 20.7017 16.6167 20.7233 16.65 20.74C16.69 20.7567 16.7234 20.765 16.75 20.765C16.8167 20.765 16.8767 20.74 16.93 20.69C16.9867 20.6367 17.015 20.58 17.015 20.52C17.015 20.48 17.0034 20.4467 16.98 20.42C16.94 20.3633 16.895 20.32 16.845 20.29C16.7984 20.2567 16.7617 20.21 16.735 20.15L16.73 20.16C16.7034 20.2133 16.6734 20.2633 16.64 20.31C16.61 20.3533 16.5817 20.395 16.555 20.435C16.505 20.505 16.4567 20.5717 16.41 20.635C16.3667 20.695 16.31 20.765 16.24 20.845C16.2167 20.8717 16.195 20.885 16.175 20.885C16.155 20.885 16.145 20.8733 16.145 20.85C16.145 20.8367 16.15 20.8233 16.16 20.81C16.2367 20.7167 16.3 20.6367 16.35 20.57C16.4034 20.5 16.4617 20.4183 16.525 20.325C16.5584 20.2783 16.5917 20.2267 16.625 20.17C16.6617 20.11 16.6884 20.0533 16.705 20C16.7017 19.8933 16.7367 19.8017 16.81 19.725C16.8834 19.645 16.9734 19.585 17.08 19.545C17.1867 19.505 17.2867 19.4883 17.38 19.495C17.4034 19.495 17.4267 19.5133 17.45 19.55C17.4767 19.5867 17.4984 19.625 17.515 19.665C17.535 19.7017 17.5467 19.7233 17.55 19.73V19.74C17.55 19.75 17.545 19.7583 17.535 19.765C17.5284 19.7717 17.5167 19.7683 17.5 19.755C17.49 19.7517 17.4734 19.75 17.45 19.75C17.4 19.75 17.34 19.76 17.27 19.78C17.2 19.7967 17.13 19.8217 17.06 19.855C16.9934 19.8883 16.9384 19.925 16.895 19.965C16.8517 20.005 16.8334 20.0483 16.84 20.095C16.8467 20.1383 16.865 20.1717 16.895 20.195C16.925 20.2183 16.9617 20.245 17.005 20.275C17.0484 20.3017 17.095 20.3433 17.145 20.4C17.2084 20.4733 17.24 20.5483 17.24 20.625C17.24 20.6917 17.2184 20.7533 17.175 20.81C17.1317 20.8633 17.08 20.9067 17.02 20.94C16.95 20.98 16.8667 21 16.77 21ZM17.7267 21.07C17.6534 21.07 17.5884 21.0417 17.5317 20.985C17.4751 20.9283 17.4467 20.8417 17.4467 20.725C17.4467 20.645 17.4651 20.5483 17.5017 20.435C17.5417 20.3183 17.5901 20.2 17.6467 20.08C17.7067 19.9567 17.7667 19.8417 17.8267 19.735C17.8901 19.625 17.9434 19.535 17.9867 19.465H17.7767C17.7267 19.465 17.7017 19.4483 17.7017 19.415C17.7017 19.3983 17.7084 19.3833 17.7217 19.37C17.7351 19.3567 17.7501 19.35 17.7667 19.35H18.0617C18.0751 19.33 18.0951 19.2967 18.1217 19.25C18.1517 19.2 18.1817 19.1467 18.2117 19.09C18.2451 19.03 18.2717 18.9783 18.2917 18.935C18.3151 18.8917 18.3267 18.865 18.3267 18.855C18.3267 18.835 18.3184 18.8217 18.3017 18.815C18.2884 18.8083 18.2784 18.8017 18.2717 18.795C18.2617 18.7783 18.2567 18.7667 18.2567 18.76C18.2567 18.7433 18.2651 18.7317 18.2817 18.725C18.2984 18.715 18.3134 18.71 18.3267 18.71C18.3567 18.71 18.4001 18.725 18.4567 18.755C18.5167 18.7817 18.5734 18.81 18.6267 18.84C18.6834 18.8667 18.7184 18.8817 18.7317 18.885C18.7184 18.9083 18.6901 18.9517 18.6467 19.015C18.6034 19.075 18.5601 19.1383 18.5167 19.205C18.4734 19.2683 18.4417 19.3167 18.4217 19.35L19.2117 19.345C19.2717 19.345 19.3017 19.3567 19.3017 19.38C19.3017 19.3967 19.2867 19.415 19.2567 19.435C19.2267 19.4517 19.1967 19.4617 19.1667 19.465C19.0967 19.4683 19.0067 19.4717 18.8967 19.475C18.7901 19.475 18.6884 19.4767 18.5917 19.48C18.4984 19.4833 18.4351 19.49 18.4017 19.5C18.3584 19.5133 18.3084 19.555 18.2517 19.625C18.1984 19.6917 18.1417 19.7733 18.0817 19.87C18.0251 19.9667 17.9701 20.0667 17.9167 20.17C17.8634 20.2733 17.8184 20.3683 17.7817 20.455C17.7451 20.5383 17.7217 20.6017 17.7117 20.645C17.7051 20.675 17.7001 20.7033 17.6967 20.73C17.6934 20.7533 17.6917 20.775 17.6917 20.795C17.6917 20.8417 17.7001 20.875 17.7167 20.895C17.7367 20.9117 17.7584 20.92 17.7817 20.92C17.8251 20.92 17.8634 20.9033 17.8967 20.87C17.9567 20.8167 18.0317 20.7383 18.1217 20.635C18.2151 20.5283 18.3001 20.4233 18.3767 20.32C18.4234 20.2533 18.4551 20.22 18.4717 20.22C18.4884 20.22 18.4884 20.2417 18.4717 20.285C18.4551 20.3283 18.4284 20.3783 18.3917 20.435C18.3484 20.4983 18.2934 20.58 18.2267 20.68C18.1601 20.7767 18.0884 20.8633 18.0117 20.94C17.9251 21.0267 17.8301 21.07 17.7267 21.07ZM18.661 21.065C18.581 21.065 18.501 21.0417 18.421 20.995C18.3443 20.945 18.296 20.8583 18.276 20.735C18.2726 20.7217 18.271 20.7 18.271 20.67C18.271 20.57 18.2976 20.4617 18.351 20.345C18.4076 20.225 18.4793 20.1117 18.566 20.005C18.656 19.8983 18.751 19.8117 18.851 19.745C18.951 19.6783 19.046 19.645 19.136 19.645C19.156 19.6683 19.1876 19.685 19.231 19.695C19.2776 19.705 19.321 19.715 19.361 19.725C19.4076 19.7383 19.441 19.76 19.461 19.79C19.4843 19.82 19.496 19.8533 19.496 19.89C19.496 19.9333 19.481 19.9817 19.451 20.035C19.421 20.085 19.3826 20.13 19.336 20.17C19.2593 20.23 19.171 20.29 19.071 20.35C18.971 20.4067 18.8793 20.4633 18.796 20.52C18.716 20.5733 18.6643 20.6267 18.641 20.68C18.6343 20.6967 18.6243 20.705 18.611 20.705C18.5876 20.705 18.581 20.6917 18.591 20.665C18.6243 20.565 18.6826 20.48 18.766 20.41C18.8493 20.34 18.936 20.275 19.026 20.215C19.1193 20.1517 19.1943 20.085 19.251 20.015C19.2943 19.9683 19.316 19.925 19.316 19.885C19.316 19.8417 19.2926 19.82 19.246 19.82C19.206 19.82 19.1626 19.8367 19.116 19.87C18.9826 19.96 18.8576 20.08 18.741 20.23C18.6243 20.3767 18.546 20.5283 18.506 20.685C18.496 20.725 18.491 20.7617 18.491 20.795C18.491 20.8583 18.5076 20.9033 18.541 20.93C18.5743 20.9533 18.6143 20.965 18.661 20.965C18.701 20.965 18.7426 20.9583 18.786 20.945C18.8293 20.9317 18.8676 20.915 18.901 20.895C18.951 20.865 19.001 20.8267 19.051 20.78C19.101 20.73 19.1426 20.685 19.176 20.645C19.2526 20.5483 19.306 20.5 19.336 20.5C19.3526 20.5 19.3493 20.5233 19.326 20.57C19.306 20.6167 19.2626 20.6817 19.196 20.765C19.1326 20.845 19.056 20.915 18.966 20.975C18.8793 21.035 18.7776 21.065 18.661 21.065ZM19.8809 21.065C19.7876 21.065 19.7242 21.035 19.6909 20.975C19.6609 20.9117 19.6509 20.8483 19.6609 20.785C19.6742 20.6983 19.7026 20.62 19.7459 20.55C19.7926 20.48 19.8392 20.4133 19.8859 20.35C19.9192 20.3067 19.9426 20.27 19.9559 20.24C19.9726 20.21 19.9676 20.1933 19.9409 20.19C19.9242 20.2033 19.8976 20.2167 19.8609 20.23C19.8242 20.2433 19.7876 20.25 19.7509 20.25C19.7209 20.25 19.6926 20.2433 19.6659 20.23C19.6392 20.2167 19.6209 20.1933 19.6109 20.16C19.5776 20.2133 19.5459 20.2633 19.5159 20.31C19.4859 20.3533 19.4576 20.395 19.4309 20.435C19.3809 20.505 19.3342 20.5717 19.2909 20.635C19.2476 20.695 19.1909 20.765 19.1209 20.845C19.0976 20.8717 19.0759 20.885 19.0559 20.885C19.0359 20.885 19.0259 20.8733 19.0259 20.85C19.0259 20.8367 19.0309 20.8233 19.0409 20.81C19.1176 20.7167 19.1809 20.6367 19.2309 20.57C19.2809 20.5 19.3392 20.4183 19.4059 20.325C19.4726 20.225 19.5309 20.1133 19.5809 19.99C19.6309 19.8667 19.6709 19.7567 19.7009 19.66C19.7309 19.56 19.7476 19.5 19.7509 19.48C19.8376 19.5133 19.8976 19.55 19.9309 19.59C19.9676 19.63 19.9859 19.6733 19.9859 19.72C19.9859 19.7833 19.9559 19.8483 19.8959 19.915C19.8392 19.9817 19.7726 20.0433 19.6959 20.1C19.7259 20.1433 19.7609 20.165 19.8009 20.165C19.8442 20.165 19.8876 20.1467 19.9309 20.11C19.9776 20.0733 20.0126 20.0433 20.0359 20.02C20.0892 19.9533 20.1476 19.92 20.2109 19.92C20.2476 19.92 20.2792 19.9317 20.3059 19.955C20.3359 19.975 20.3509 20.0017 20.3509 20.035C20.3509 20.0517 20.3459 20.0683 20.3359 20.085C20.2859 20.1517 20.2292 20.2333 20.1659 20.33C20.1026 20.4267 20.0442 20.5233 19.9909 20.62C19.9409 20.7133 19.9042 20.7933 19.8809 20.86C19.8776 20.8733 19.8742 20.885 19.8709 20.895C19.8709 20.9017 19.8709 20.9083 19.8709 20.915C19.8709 20.9417 19.8826 20.955 19.9059 20.955C19.9226 20.955 19.9426 20.9483 19.9659 20.935C19.9892 20.9217 20.0076 20.9083 20.0209 20.895C20.0809 20.8417 20.1559 20.7583 20.2459 20.645C20.3359 20.5317 20.4192 20.4233 20.4959 20.32C20.5426 20.2533 20.5742 20.22 20.5909 20.22C20.6076 20.22 20.6076 20.2417 20.5909 20.285C20.5776 20.3283 20.5526 20.3783 20.5159 20.435C20.4659 20.505 20.4076 20.59 20.3409 20.69C20.2776 20.7867 20.2059 20.8733 20.1259 20.95C20.0492 21.0267 19.9676 21.065 19.8809 21.065Z" fill="white"/>
<path d="M12.0161 25.099C11.9281 25.099 11.8421 25.086 11.7581 25.06C11.6761 25.034 11.6001 24.99 11.5301 24.928C11.4661 24.888 11.4131 24.831 11.3711 24.757C11.3311 24.681 11.3151 24.603 11.3231 24.523C11.3331 24.429 11.3661 24.332 11.4221 24.232C11.4781 24.132 11.5511 24.033 11.6411 23.935C11.7311 23.835 11.8311 23.742 11.9411 23.656C12.0531 23.568 12.1691 23.49 12.2891 23.422C12.4091 23.352 12.5261 23.297 12.6401 23.257C12.7721 23.211 12.8981 23.188 13.0181 23.188C13.0941 23.188 13.1561 23.198 13.2041 23.218C13.2541 23.238 13.2801 23.269 13.2821 23.311C13.3221 23.365 13.3421 23.424 13.3421 23.488C13.3421 23.564 13.3161 23.639 13.2641 23.713C13.2141 23.787 13.1521 23.857 13.0781 23.923C13.0041 23.989 12.9291 24.047 12.8531 24.097C12.7771 24.145 12.7131 24.183 12.6611 24.211C12.6531 24.219 12.6451 24.223 12.6371 24.223C12.6231 24.223 12.6231 24.214 12.6371 24.196C12.6711 24.184 12.7131 24.159 12.7631 24.121C12.8151 24.081 12.8701 24.033 12.9281 23.977C12.9861 23.921 13.0401 23.863 13.0901 23.803C13.1421 23.741 13.1841 23.681 13.2161 23.623C13.2481 23.563 13.2641 23.51 13.2641 23.464C13.2641 23.422 13.2471 23.389 13.2131 23.365C13.1791 23.339 13.1231 23.326 13.0451 23.326C12.9411 23.326 12.8241 23.348 12.6941 23.392C12.5641 23.434 12.4321 23.494 12.2981 23.572C12.1641 23.65 12.0391 23.744 11.9231 23.854C11.8071 23.962 11.7101 24.083 11.6321 24.217C11.5561 24.351 11.5101 24.494 11.4941 24.646C11.4921 24.654 11.4911 24.662 11.4911 24.67C11.4911 24.676 11.4911 24.683 11.4911 24.691C11.4911 24.773 11.5121 24.839 11.5541 24.889C11.5981 24.939 11.6551 24.975 11.7251 24.997C11.7951 25.019 11.8711 25.03 11.9531 25.03C11.9871 25.03 12.0211 25.028 12.0551 25.024C12.0911 25.02 12.1261 25.015 12.1601 25.009C12.3301 24.977 12.4871 24.929 12.6311 24.865C12.7751 24.801 12.9031 24.731 13.0151 24.655C13.0331 24.643 13.0451 24.637 13.0511 24.637C13.0551 24.637 13.0571 24.639 13.0571 24.643C13.0571 24.649 13.0511 24.658 13.0391 24.67C12.9951 24.712 12.9421 24.756 12.8801 24.802C12.8181 24.848 12.7551 24.887 12.6911 24.919C12.5931 24.967 12.4851 25.009 12.3671 25.045C12.2511 25.081 12.1341 25.099 12.0161 25.099ZM13.5885 25.234C13.5345 25.234 13.4985 25.217 13.4805 25.183C13.4645 25.151 13.4565 25.12 13.4565 25.09C13.4565 25.042 13.4695 24.984 13.4955 24.916C13.5215 24.848 13.5515 24.778 13.5855 24.706C13.6215 24.634 13.6545 24.571 13.6845 24.517C13.7085 24.475 13.7205 24.442 13.7205 24.418C13.7205 24.402 13.7145 24.394 13.7025 24.394C13.6865 24.394 13.6585 24.411 13.6185 24.445C13.5805 24.479 13.5405 24.52 13.4985 24.568C13.4565 24.614 13.4205 24.657 13.3905 24.697C13.3605 24.737 13.3315 24.782 13.3035 24.832C13.2775 24.882 13.2535 24.924 13.2315 24.958C13.2215 24.976 13.2095 24.985 13.1955 24.985C13.1815 24.985 13.1675 24.977 13.1535 24.961C13.1395 24.945 13.1325 24.916 13.1325 24.874C13.1325 24.856 13.1405 24.815 13.1565 24.751C13.1745 24.685 13.1985 24.607 13.2285 24.517C13.2585 24.427 13.2925 24.334 13.3305 24.238C13.3705 24.142 13.4125 24.052 13.4565 23.968C13.5145 23.862 13.5775 23.759 13.6455 23.659C13.7135 23.557 13.7815 23.465 13.8495 23.383C13.9175 23.301 13.9815 23.236 14.0415 23.188C14.1015 23.14 14.1505 23.116 14.1885 23.116C14.2225 23.116 14.2445 23.124 14.2545 23.14C14.2645 23.154 14.2725 23.171 14.2785 23.191C14.2865 23.209 14.3015 23.225 14.3235 23.239C14.3155 23.289 14.2905 23.352 14.2485 23.428C14.2085 23.504 14.1495 23.584 14.0715 23.668C13.9635 23.784 13.8545 23.911 13.7445 24.049C13.6345 24.185 13.5355 24.319 13.4475 24.451C13.4395 24.461 13.4315 24.466 13.4235 24.466C13.4175 24.466 13.4185 24.46 13.4265 24.448C13.4945 24.328 13.5705 24.214 13.6545 24.106C13.7405 23.998 13.8275 23.891 13.9155 23.785C14.0055 23.677 14.0895 23.567 14.1675 23.455C14.1915 23.421 14.2085 23.393 14.2185 23.371C14.2285 23.347 14.2335 23.328 14.2335 23.314C14.2335 23.292 14.2225 23.281 14.2005 23.281C14.1545 23.281 14.0995 23.315 14.0355 23.383C13.9715 23.453 13.9015 23.537 13.8255 23.635C13.7515 23.733 13.6855 23.826 13.6275 23.914C13.5955 23.962 13.5585 24.024 13.5165 24.1C13.4765 24.174 13.4365 24.252 13.3965 24.334C13.3585 24.414 13.3265 24.488 13.3005 24.556C13.2765 24.624 13.2645 24.675 13.2645 24.709C13.2645 24.727 13.2715 24.736 13.2855 24.736C13.2935 24.736 13.3015 24.733 13.3095 24.727C13.3175 24.721 13.3255 24.714 13.3335 24.706C13.3815 24.658 13.4325 24.605 13.4865 24.547C13.5425 24.489 13.5985 24.431 13.6545 24.373C13.7105 24.313 13.7615 24.26 13.8075 24.214C13.8295 24.222 13.8485 24.226 13.8645 24.226C13.8825 24.226 13.9025 24.231 13.9245 24.241C13.9445 24.249 13.9545 24.265 13.9545 24.289C13.9545 24.303 13.9505 24.32 13.9425 24.34C13.9345 24.36 13.9245 24.381 13.9125 24.403C13.8685 24.477 13.8205 24.549 13.7685 24.619C13.7165 24.687 13.6685 24.758 13.6245 24.832C13.5825 24.904 13.5515 24.984 13.5315 25.072C13.5295 25.082 13.5275 25.093 13.5255 25.105C13.5255 25.117 13.5255 25.128 13.5255 25.138C13.5255 25.19 13.5405 25.216 13.5705 25.216C13.5885 25.216 13.6075 25.207 13.6275 25.189L13.7115 25.114C13.6955 25.15 13.6775 25.179 13.6575 25.201C13.6395 25.223 13.6165 25.234 13.5885 25.234ZM14.0362 25.033C13.9942 25.033 13.9622 25.013 13.9402 24.973C13.9202 24.931 13.9102 24.895 13.9102 24.865C13.9102 24.795 13.9312 24.722 13.9732 24.646C14.0152 24.57 14.0682 24.498 14.1322 24.43C14.1982 24.362 14.2672 24.307 14.3392 24.265C14.4112 24.223 14.4782 24.202 14.5402 24.202C14.5582 24.202 14.5782 24.21 14.6002 24.226C14.6242 24.24 14.6462 24.263 14.6662 24.295C14.6702 24.299 14.6752 24.308 14.6812 24.322C14.6872 24.334 14.6872 24.345 14.6812 24.355L14.6782 24.349C14.6742 24.339 14.6652 24.331 14.6512 24.325C14.6372 24.317 14.6162 24.313 14.5882 24.313C14.5422 24.313 14.4902 24.329 14.4322 24.361C14.3762 24.393 14.3192 24.436 14.2612 24.49C14.2052 24.544 14.1542 24.603 14.1082 24.667C14.0622 24.731 14.0282 24.796 14.0062 24.862C13.9922 24.896 13.9852 24.925 13.9852 24.949C13.9852 24.979 13.9962 24.994 14.0182 24.994C14.0342 24.994 14.0532 24.986 14.0752 24.97C14.1172 24.938 14.1612 24.897 14.2072 24.847C14.2532 24.797 14.2972 24.745 14.3392 24.691C14.3832 24.637 14.4212 24.587 14.4532 24.541C14.4872 24.495 14.5112 24.461 14.5252 24.439C14.5312 24.431 14.5382 24.427 14.5462 24.427C14.5562 24.425 14.5682 24.424 14.5822 24.424C14.6222 24.424 14.6472 24.431 14.6572 24.445C14.6692 24.457 14.6702 24.47 14.6602 24.484C14.6342 24.522 14.6062 24.566 14.5762 24.616C14.5482 24.666 14.5232 24.715 14.5012 24.763C14.4812 24.811 14.4712 24.854 14.4712 24.892C14.4712 24.922 14.4832 24.937 14.5072 24.937C14.5292 24.937 14.5532 24.924 14.5792 24.898C14.6032 24.876 14.6312 24.844 14.6632 24.802C14.6972 24.76 14.7302 24.716 14.7622 24.67C14.7962 24.624 14.8242 24.584 14.8462 24.55C14.8542 24.54 14.8602 24.536 14.8642 24.538C14.8702 24.538 14.8702 24.544 14.8642 24.556C14.8322 24.606 14.7992 24.658 14.7652 24.712C14.7312 24.764 14.6952 24.813 14.6572 24.859C14.5852 24.951 14.5312 24.997 14.4952 24.997C14.4632 24.997 14.4332 24.987 14.4052 24.967C14.3772 24.947 14.3632 24.918 14.3632 24.88C14.3632 24.84 14.3712 24.794 14.3872 24.742C14.4052 24.688 14.4212 24.646 14.4352 24.616C14.3932 24.68 14.3452 24.744 14.2912 24.808C14.2372 24.872 14.1862 24.926 14.1382 24.97C14.0922 25.012 14.0582 25.033 14.0362 25.033ZM15.6428 25.234C15.5888 25.234 15.5528 25.217 15.5348 25.183C15.5168 25.151 15.5078 25.119 15.5078 25.087C15.5078 25.035 15.5178 24.981 15.5378 24.925C15.5598 24.867 15.5838 24.81 15.6098 24.754C15.6558 24.66 15.6918 24.589 15.7178 24.541C15.7438 24.493 15.7618 24.457 15.7718 24.433C15.7838 24.409 15.7898 24.387 15.7898 24.367C15.7898 24.347 15.7848 24.334 15.7748 24.328C15.7648 24.322 15.7548 24.319 15.7448 24.319C15.7308 24.319 15.7148 24.325 15.6968 24.337C15.6788 24.347 15.6618 24.36 15.6458 24.376C15.6118 24.412 15.5748 24.458 15.5348 24.514C15.4948 24.568 15.4558 24.625 15.4178 24.685C15.3818 24.743 15.3498 24.796 15.3218 24.844C15.2958 24.892 15.2778 24.926 15.2678 24.946C15.2498 24.982 15.2288 25 15.2048 25C15.1768 25 15.1478 24.98 15.1178 24.94C15.1318 24.908 15.1478 24.872 15.1658 24.832C15.1838 24.79 15.2018 24.747 15.2198 24.703C15.2418 24.651 15.2618 24.594 15.2798 24.532C15.2998 24.47 15.3098 24.418 15.3098 24.376C15.3098 24.334 15.2988 24.313 15.2768 24.313C15.2588 24.313 15.2348 24.328 15.2048 24.358C15.1768 24.384 15.1418 24.424 15.0998 24.478C15.0598 24.53 15.0188 24.588 14.9768 24.652C14.9348 24.716 14.8978 24.778 14.8658 24.838C14.8358 24.896 14.8168 24.944 14.8088 24.982C14.8048 24.992 14.7958 24.997 14.7818 24.997C14.7638 24.997 14.7448 24.989 14.7248 24.973C14.7048 24.957 14.6958 24.931 14.6978 24.895C14.6978 24.889 14.7058 24.867 14.7218 24.829C14.7378 24.789 14.7568 24.743 14.7788 24.691C14.8028 24.639 14.8258 24.588 14.8478 24.538C14.8698 24.488 14.8878 24.448 14.9018 24.418C14.8878 24.406 14.8798 24.397 14.8778 24.391C14.8778 24.385 14.8788 24.379 14.8808 24.373C14.8868 24.365 14.8958 24.35 14.9078 24.328C14.9198 24.304 14.9318 24.281 14.9438 24.259C14.9558 24.235 14.9628 24.219 14.9648 24.211C14.9728 24.207 14.9888 24.201 15.0128 24.193C15.0388 24.183 15.0638 24.178 15.0878 24.178H15.0998C15.1238 24.178 15.1358 24.185 15.1358 24.199C15.1358 24.213 15.1288 24.231 15.1148 24.253C15.1088 24.263 15.0958 24.287 15.0758 24.325C15.0558 24.361 15.0328 24.403 15.0068 24.451C14.9808 24.499 14.9568 24.545 14.9348 24.589C14.9148 24.631 14.8998 24.664 14.8898 24.688C14.8798 24.71 14.8768 24.733 14.8808 24.757C14.9208 24.691 14.9688 24.618 15.0248 24.538C15.0808 24.456 15.1398 24.383 15.2018 24.319C15.2258 24.291 15.2518 24.277 15.2798 24.277C15.3358 24.277 15.3758 24.29 15.3998 24.316C15.4258 24.342 15.4388 24.371 15.4388 24.403C15.4388 24.441 15.4278 24.485 15.4058 24.535C15.3978 24.555 15.3838 24.591 15.3638 24.643C15.3438 24.693 15.3238 24.742 15.3038 24.79C15.3338 24.748 15.3708 24.695 15.4148 24.631C15.4608 24.567 15.5078 24.504 15.5558 24.442C15.6058 24.378 15.6508 24.325 15.6908 24.283C15.7308 24.241 15.7598 24.22 15.7778 24.22C15.8218 24.22 15.8608 24.236 15.8948 24.268C15.9308 24.298 15.9488 24.324 15.9488 24.346C15.9488 24.378 15.9338 24.42 15.9038 24.472C15.8738 24.524 15.8238 24.606 15.7538 24.718C15.7138 24.782 15.6738 24.854 15.6338 24.934C15.5958 25.012 15.5768 25.08 15.5768 25.138C15.5768 25.19 15.5918 25.216 15.6218 25.216C15.6398 25.216 15.6588 25.207 15.6788 25.189C15.6928 25.177 15.7068 25.164 15.7208 25.15C15.7348 25.136 15.7488 25.124 15.7628 25.114C15.7468 25.15 15.7298 25.179 15.7118 25.201C15.6938 25.223 15.6708 25.234 15.6428 25.234ZM14.9407 26.251C14.9167 26.251 14.8897 26.248 14.8597 26.242C14.8277 26.238 14.7997 26.231 14.7757 26.221C14.7617 26.215 14.7577 26.209 14.7637 26.203C14.7697 26.197 14.7767 26.196 14.7847 26.2C14.8067 26.208 14.8297 26.213 14.8537 26.215C14.8757 26.217 14.8987 26.218 14.9227 26.218C14.9847 26.218 15.0507 26.198 15.1207 26.158C15.1887 26.118 15.2587 26.065 15.3307 25.999C15.4007 25.933 15.4697 25.861 15.5377 25.783C15.6257 25.683 15.7117 25.567 15.7957 25.435C15.8777 25.305 15.9527 25.171 16.0207 25.033C16.0887 24.895 16.1437 24.765 16.1857 24.643C16.2297 24.521 16.2547 24.418 16.2607 24.334C16.2107 24.412 16.1647 24.484 16.1227 24.55C16.0827 24.614 16.0347 24.686 15.9787 24.766C15.9727 24.774 15.9677 24.778 15.9637 24.778C15.9617 24.778 15.9597 24.775 15.9577 24.769C15.9577 24.761 15.9587 24.755 15.9607 24.751C16.0127 24.681 16.0607 24.605 16.1047 24.523C16.1507 24.441 16.1877 24.358 16.2157 24.274C16.2457 24.188 16.2597 24.105 16.2577 24.025C16.2657 24.023 16.2727 24.022 16.2787 24.022C16.2867 24.022 16.2937 24.022 16.2997 24.022C16.3697 24.022 16.4047 24.052 16.4047 24.112C16.4047 24.136 16.3967 24.166 16.3807 24.202C16.3707 24.226 16.3557 24.248 16.3357 24.268C16.3177 24.288 16.2977 24.308 16.2757 24.328C16.2797 24.344 16.2827 24.361 16.2847 24.379C16.2867 24.397 16.2877 24.417 16.2877 24.439C16.2877 24.483 16.2827 24.533 16.2727 24.589C16.2647 24.645 16.2497 24.712 16.2277 24.79C16.2757 24.69 16.3317 24.594 16.3957 24.502C16.4617 24.41 16.5267 24.335 16.5907 24.277C16.6567 24.219 16.7127 24.19 16.7587 24.19C16.7887 24.19 16.8157 24.2 16.8397 24.22C16.8657 24.24 16.8867 24.263 16.9027 24.289C16.9187 24.313 16.9267 24.335 16.9267 24.355C16.9267 24.421 16.9047 24.491 16.8607 24.565C16.8167 24.637 16.7597 24.705 16.6897 24.769C16.6217 24.833 16.5497 24.885 16.4737 24.925C16.3997 24.963 16.3317 24.982 16.2697 24.982C16.2577 24.982 16.2447 24.981 16.2307 24.979C16.2187 24.975 16.2017 24.96 16.1797 24.934L16.1647 24.97C16.0907 25.132 16.0097 25.294 15.9217 25.456C15.8357 25.618 15.7357 25.764 15.6217 25.894C15.5077 26.018 15.3977 26.108 15.2917 26.164C15.1837 26.222 15.0667 26.251 14.9407 26.251ZM16.1977 24.91C16.2317 24.91 16.2657 24.903 16.2997 24.889C16.3357 24.873 16.3637 24.859 16.3837 24.847C16.4397 24.815 16.4977 24.772 16.5577 24.718C16.6197 24.662 16.6757 24.602 16.7257 24.538C16.7757 24.474 16.8117 24.413 16.8337 24.355C16.8397 24.333 16.8427 24.315 16.8427 24.301C16.8427 24.251 16.8207 24.226 16.7767 24.226C16.7527 24.226 16.7247 24.236 16.6927 24.256C16.6627 24.276 16.6327 24.301 16.6027 24.331C16.5727 24.359 16.5457 24.386 16.5217 24.412C16.4737 24.464 16.4267 24.522 16.3807 24.586C16.3367 24.648 16.2977 24.708 16.2637 24.766C16.2317 24.824 16.2097 24.872 16.1977 24.91ZM17.5281 24.133C17.4981 24.121 17.4721 24.102 17.4501 24.076C17.4301 24.048 17.4231 24.018 17.4291 23.986C17.4331 23.968 17.4381 23.957 17.4441 23.953C17.4521 23.947 17.4731 23.943 17.5071 23.941L17.6661 23.914C17.6841 23.91 17.6931 23.91 17.6931 23.914C17.6931 23.922 17.6861 23.928 17.6721 23.932C17.6401 23.94 17.6121 23.952 17.5881 23.968C17.5641 23.984 17.5441 24.006 17.5281 24.034C17.5241 24.04 17.5221 24.049 17.5221 24.061C17.5221 24.073 17.5241 24.085 17.5281 24.097C17.5341 24.107 17.5401 24.116 17.5461 24.124C17.5521 24.132 17.5521 24.136 17.5461 24.136C17.5421 24.136 17.5361 24.135 17.5281 24.133ZM17.1771 25.042C17.1091 25.042 17.0611 25.021 17.0331 24.979C17.0071 24.935 16.9941 24.883 16.9941 24.823C16.9941 24.777 17.0001 24.73 17.0121 24.682C17.0261 24.634 17.0431 24.591 17.0631 24.553C17.0451 24.545 17.0391 24.538 17.0451 24.532C17.0591 24.512 17.0761 24.487 17.0961 24.457C17.1181 24.427 17.1401 24.397 17.1621 24.367C17.1881 24.333 17.2111 24.305 17.2311 24.283C17.2531 24.261 17.2761 24.25 17.3001 24.25C17.3161 24.25 17.3301 24.255 17.3421 24.265C17.3561 24.275 17.3701 24.285 17.3841 24.295C17.3381 24.343 17.2921 24.402 17.2461 24.472C17.2001 24.542 17.1621 24.616 17.1321 24.694C17.1041 24.77 17.0901 24.845 17.0901 24.919C17.0901 24.951 17.0971 24.974 17.1111 24.988C17.1271 25 17.1461 25.006 17.1681 25.006C17.2141 25.006 17.2551 24.99 17.2911 24.958C17.3291 24.924 17.3731 24.875 17.4231 24.811C17.4751 24.745 17.5241 24.676 17.5701 24.604C17.5821 24.588 17.5911 24.579 17.5971 24.577C17.6051 24.575 17.6061 24.579 17.6001 24.589C17.5841 24.621 17.5591 24.662 17.5251 24.712C17.4931 24.76 17.4591 24.808 17.4231 24.856C17.3871 24.904 17.3561 24.941 17.3301 24.967C17.3041 24.993 17.2771 25.012 17.2491 25.024C17.2231 25.036 17.1991 25.042 17.1771 25.042ZM17.6807 25.045C17.6227 25.045 17.5727 25.023 17.5307 24.979C17.4907 24.935 17.4707 24.875 17.4707 24.799C17.4707 24.771 17.4737 24.741 17.4797 24.709C17.4877 24.675 17.4987 24.64 17.5127 24.604C17.5427 24.534 17.5837 24.467 17.6357 24.403C17.6897 24.339 17.7477 24.286 17.8097 24.244C17.8717 24.202 17.9307 24.181 17.9867 24.181C17.9927 24.181 17.9997 24.184 18.0077 24.19C18.0157 24.194 18.0217 24.198 18.0257 24.202L18.0407 24.217C18.0647 24.241 18.0877 24.255 18.1097 24.259C18.1337 24.263 18.1527 24.275 18.1667 24.295C18.1907 24.333 18.2027 24.379 18.2027 24.433C18.2027 24.507 18.1797 24.588 18.1337 24.676C18.0897 24.762 18.0297 24.84 17.9537 24.91C17.9157 24.944 17.8737 24.975 17.8277 25.003C17.7817 25.031 17.7327 25.045 17.6807 25.045ZM17.7017 25.012C17.7497 25.012 17.7987 24.996 17.8487 24.964C17.8987 24.93 17.9447 24.886 17.9867 24.832C18.0307 24.778 18.0677 24.721 18.0977 24.661C18.1297 24.601 18.1497 24.544 18.1577 24.49C18.1597 24.48 18.1607 24.47 18.1607 24.46C18.1627 24.448 18.1637 24.438 18.1637 24.43C18.1637 24.376 18.1507 24.337 18.1247 24.313C18.0987 24.287 18.0677 24.274 18.0317 24.274C17.9937 24.274 17.9547 24.286 17.9147 24.31C17.8767 24.332 17.8287 24.378 17.7707 24.448C17.7127 24.516 17.6607 24.587 17.6147 24.661C17.5727 24.727 17.5517 24.791 17.5517 24.853C17.5517 24.897 17.5637 24.935 17.5877 24.967C17.6137 24.997 17.6517 25.012 17.7017 25.012ZM18.7628 25.039C18.7108 25.039 18.6738 25.024 18.6518 24.994C18.6318 24.962 18.6218 24.925 18.6218 24.883C18.6218 24.835 18.6288 24.787 18.6428 24.739C18.6588 24.689 18.6758 24.644 18.6938 24.604C18.7138 24.562 18.7298 24.53 18.7418 24.508C18.7758 24.444 18.7928 24.402 18.7928 24.382C18.7928 24.36 18.7828 24.353 18.7628 24.361C18.7468 24.367 18.7248 24.384 18.6968 24.412C18.6688 24.44 18.6398 24.472 18.6098 24.508C18.5798 24.544 18.5528 24.577 18.5288 24.607C18.5068 24.637 18.4928 24.657 18.4868 24.667C18.4308 24.747 18.3918 24.813 18.3698 24.865C18.3478 24.917 18.3318 24.955 18.3218 24.979C18.3178 24.989 18.3068 24.994 18.2888 24.994C18.2708 24.994 18.2528 24.987 18.2348 24.973C18.2168 24.957 18.2078 24.934 18.2078 24.904C18.2078 24.888 18.2168 24.86 18.2348 24.82C18.2528 24.778 18.2748 24.729 18.3008 24.673C18.3248 24.619 18.3488 24.565 18.3728 24.511C18.3968 24.455 18.4158 24.411 18.4298 24.379C18.4158 24.367 18.4088 24.358 18.4088 24.352C18.4088 24.346 18.4098 24.341 18.4118 24.337C18.4158 24.327 18.4238 24.311 18.4358 24.289C18.4478 24.265 18.4598 24.242 18.4718 24.22C18.4838 24.196 18.4918 24.181 18.4958 24.175C18.5018 24.171 18.5168 24.164 18.5408 24.154C18.5668 24.144 18.5918 24.139 18.6158 24.139H18.6278C18.6518 24.139 18.6638 24.146 18.6638 24.16C18.6638 24.174 18.6568 24.192 18.6428 24.214C18.6368 24.224 18.6228 24.25 18.6008 24.292C18.5788 24.332 18.5538 24.378 18.5258 24.43C18.4978 24.482 18.4718 24.532 18.4478 24.58C18.4258 24.626 18.4098 24.661 18.3998 24.685C18.3938 24.703 18.3908 24.721 18.3908 24.739C18.3928 24.755 18.3978 24.757 18.4058 24.745C18.4618 24.661 18.5138 24.589 18.5618 24.529C18.6098 24.469 18.6578 24.413 18.7058 24.361C18.7538 24.309 18.8068 24.255 18.8648 24.199C18.8848 24.207 18.9058 24.211 18.9278 24.211C18.9498 24.211 18.9688 24.217 18.9848 24.229C18.9928 24.235 18.9968 24.245 18.9968 24.259C18.9968 24.287 18.9798 24.329 18.9458 24.385C18.9138 24.439 18.8778 24.5 18.8378 24.568C18.8078 24.62 18.7778 24.68 18.7478 24.748C18.7178 24.816 18.7028 24.875 18.7028 24.925C18.7028 24.951 18.7068 24.973 18.7148 24.991C18.7248 25.007 18.7398 25.015 18.7598 25.015C18.7778 25.015 18.7978 25.008 18.8198 24.994C18.8358 24.984 18.8708 24.951 18.9248 24.895C18.9788 24.837 19.0378 24.759 19.1018 24.661C19.1078 24.655 19.1118 24.652 19.1138 24.652C19.1178 24.652 19.1198 24.654 19.1198 24.658C19.1198 24.662 19.1168 24.67 19.1108 24.682C19.0448 24.794 18.9788 24.882 18.9128 24.946C18.8488 25.008 18.7988 25.039 18.7628 25.039ZM14.1079 29.099C14.0199 29.099 13.9339 29.086 13.8499 29.06C13.7679 29.034 13.6919 28.99 13.6219 28.928C13.5579 28.888 13.5049 28.831 13.4629 28.757C13.4229 28.681 13.4069 28.603 13.4149 28.523C13.4249 28.429 13.4579 28.332 13.5139 28.232C13.5699 28.132 13.6429 28.033 13.7329 27.935C13.8229 27.835 13.9229 27.742 14.0329 27.656C14.1449 27.568 14.2609 27.49 14.3809 27.422C14.5009 27.352 14.6179 27.297 14.7319 27.257C14.8639 27.211 14.9899 27.188 15.1099 27.188C15.1859 27.188 15.2479 27.198 15.2959 27.218C15.3459 27.238 15.3719 27.269 15.3739 27.311C15.4139 27.365 15.4339 27.424 15.4339 27.488C15.4339 27.564 15.4079 27.639 15.3559 27.713C15.3059 27.787 15.2439 27.857 15.1699 27.923C15.0959 27.989 15.0209 28.047 14.9449 28.097C14.8689 28.145 14.8049 28.183 14.7529 28.211C14.7449 28.219 14.7369 28.223 14.7289 28.223C14.7149 28.223 14.7149 28.214 14.7289 28.196C14.7629 28.184 14.8049 28.159 14.8549 28.121C14.9069 28.081 14.9619 28.033 15.0199 27.977C15.0779 27.921 15.1319 27.863 15.1819 27.803C15.2339 27.741 15.2759 27.681 15.3079 27.623C15.3399 27.563 15.3559 27.51 15.3559 27.464C15.3559 27.422 15.3389 27.389 15.3049 27.365C15.2709 27.339 15.2149 27.326 15.1369 27.326C15.0329 27.326 14.9159 27.348 14.7859 27.392C14.6559 27.434 14.5239 27.494 14.3899 27.572C14.2559 27.65 14.1309 27.744 14.0149 27.854C13.8989 27.962 13.8019 28.083 13.7239 28.217C13.6479 28.351 13.6019 28.494 13.5859 28.646C13.5839 28.654 13.5829 28.662 13.5829 28.67C13.5829 28.676 13.5829 28.683 13.5829 28.691C13.5829 28.773 13.6039 28.839 13.6459 28.889C13.6899 28.939 13.7469 28.975 13.8169 28.997C13.8869 29.019 13.9629 29.03 14.0449 29.03C14.0789 29.03 14.1129 29.028 14.1469 29.024C14.1829 29.02 14.2179 29.015 14.2519 29.009C14.4219 28.977 14.5789 28.929 14.7229 28.865C14.8669 28.801 14.9949 28.731 15.1069 28.655C15.1249 28.643 15.1369 28.637 15.1429 28.637C15.1469 28.637 15.1489 28.639 15.1489 28.643C15.1489 28.649 15.1429 28.658 15.1309 28.67C15.0869 28.712 15.0339 28.756 14.9719 28.802C14.9099 28.848 14.8469 28.887 14.7829 28.919C14.6849 28.967 14.5769 29.009 14.4589 29.045C14.3429 29.081 14.2259 29.099 14.1079 29.099ZM15.3083 29.009C15.2643 29.009 15.2303 28.999 15.2063 28.979C15.1843 28.959 15.1753 28.933 15.1793 28.901C15.1833 28.879 15.1893 28.854 15.1973 28.826C15.2053 28.798 15.2153 28.77 15.2273 28.742L15.2993 28.574C15.2973 28.57 15.2953 28.567 15.2933 28.565C15.2933 28.561 15.2933 28.558 15.2933 28.556C15.2913 28.548 15.2923 28.541 15.2963 28.535C15.3483 28.455 15.3963 28.388 15.4403 28.334C15.4843 28.28 15.5133 28.253 15.5273 28.253C15.5553 28.253 15.5883 28.272 15.6263 28.31C15.6003 28.342 15.5733 28.378 15.5453 28.418C15.5173 28.456 15.4903 28.495 15.4643 28.535C15.4363 28.577 15.4063 28.623 15.3743 28.673C15.3443 28.721 15.3233 28.765 15.3113 28.805C15.2993 28.841 15.2933 28.869 15.2933 28.889C15.2933 28.917 15.3033 28.931 15.3233 28.931C15.3493 28.931 15.3873 28.904 15.4373 28.85C15.4713 28.814 15.5083 28.77 15.5483 28.718C15.5903 28.664 15.6303 28.61 15.6683 28.556C15.7083 28.5 15.7453 28.448 15.7793 28.4C15.8153 28.35 15.8453 28.31 15.8693 28.28C15.8913 28.252 15.9113 28.238 15.9293 28.238C15.9553 28.238 15.9853 28.26 16.0193 28.304C15.9913 28.344 15.9573 28.396 15.9173 28.46C15.8773 28.522 15.8403 28.586 15.8063 28.652C15.7743 28.716 15.7533 28.773 15.7433 28.823C15.7413 28.831 15.7393 28.839 15.7373 28.847C15.7373 28.855 15.7373 28.864 15.7373 28.874C15.7373 28.932 15.7523 28.961 15.7823 28.961C15.7983 28.961 15.8173 28.952 15.8393 28.934C15.8633 28.916 15.8863 28.895 15.9083 28.871C15.9303 28.847 15.9473 28.827 15.9593 28.811C16.0233 28.725 16.0843 28.636 16.1423 28.544C16.1543 28.526 16.1623 28.517 16.1663 28.517C16.1703 28.517 16.1713 28.521 16.1693 28.529C16.1693 28.535 16.1683 28.54 16.1663 28.544C16.1263 28.61 16.0793 28.682 16.0253 28.76C15.9733 28.838 15.9213 28.902 15.8693 28.952C15.8413 28.98 15.8133 28.994 15.7853 28.994C15.7313 28.994 15.6913 28.981 15.6653 28.955C15.6393 28.929 15.6263 28.9 15.6263 28.868C15.6263 28.848 15.6293 28.827 15.6353 28.805C15.6413 28.781 15.6483 28.757 15.6563 28.733L15.7373 28.52C15.7073 28.558 15.6823 28.59 15.6623 28.616C15.6423 28.64 15.6243 28.663 15.6083 28.685C15.5943 28.705 15.5783 28.728 15.5603 28.754C15.5423 28.778 15.5233 28.802 15.5033 28.826C15.4653 28.876 15.4283 28.919 15.3923 28.955C15.3563 28.991 15.3283 29.009 15.3083 29.009ZM14.9818 30.251C14.9578 30.251 14.9308 30.248 14.9008 30.242C14.8688 30.238 14.8408 30.231 14.8168 30.221C14.8028 30.215 14.7988 30.209 14.8048 30.203C14.8108 30.197 14.8178 30.196 14.8258 30.2C14.8478 30.208 14.8708 30.213 14.8948 30.215C14.9168 30.217 14.9398 30.218 14.9638 30.218C15.0258 30.218 15.0918 30.198 15.1618 30.158C15.2298 30.118 15.2998 30.065 15.3718 29.999C15.4418 29.933 15.5108 29.861 15.5788 29.783C15.6668 29.683 15.7528 29.567 15.8368 29.435C15.9188 29.305 15.9938 29.171 16.0618 29.033C16.1298 28.895 16.1848 28.765 16.2268 28.643C16.2708 28.521 16.2958 28.418 16.3018 28.334C16.2518 28.412 16.2058 28.484 16.1638 28.55C16.1238 28.614 16.0758 28.686 16.0198 28.766C16.0138 28.774 16.0088 28.778 16.0048 28.778C16.0028 28.778 16.0008 28.775 15.9988 28.769C15.9988 28.761 15.9998 28.755 16.0018 28.751C16.0538 28.681 16.1018 28.605 16.1458 28.523C16.1918 28.441 16.2288 28.358 16.2568 28.274C16.2868 28.188 16.3008 28.105 16.2988 28.025C16.3068 28.023 16.3138 28.022 16.3198 28.022C16.3278 28.022 16.3348 28.022 16.3408 28.022C16.4108 28.022 16.4458 28.052 16.4458 28.112C16.4458 28.136 16.4378 28.166 16.4218 28.202C16.4118 28.226 16.3968 28.248 16.3768 28.268C16.3588 28.288 16.3388 28.308 16.3168 28.328C16.3208 28.344 16.3238 28.361 16.3258 28.379C16.3278 28.397 16.3288 28.417 16.3288 28.439C16.3288 28.483 16.3238 28.533 16.3138 28.589C16.3058 28.645 16.2908 28.712 16.2688 28.79C16.3168 28.69 16.3728 28.594 16.4368 28.502C16.5028 28.41 16.5678 28.335 16.6318 28.277C16.6978 28.219 16.7538 28.19 16.7998 28.19C16.8298 28.19 16.8568 28.2 16.8808 28.22C16.9068 28.24 16.9278 28.263 16.9438 28.289C16.9598 28.313 16.9678 28.335 16.9678 28.355C16.9678 28.421 16.9458 28.491 16.9018 28.565C16.8578 28.637 16.8008 28.705 16.7308 28.769C16.6628 28.833 16.5908 28.885 16.5148 28.925C16.4408 28.963 16.3728 28.982 16.3108 28.982C16.2988 28.982 16.2858 28.981 16.2718 28.979C16.2598 28.975 16.2428 28.96 16.2208 28.934L16.2058 28.97C16.1318 29.132 16.0508 29.294 15.9628 29.456C15.8768 29.618 15.7768 29.764 15.6628 29.894C15.5488 30.018 15.4388 30.108 15.3328 30.164C15.2248 30.222 15.1078 30.251 14.9818 30.251ZM16.2388 28.91C16.2728 28.91 16.3068 28.903 16.3408 28.889C16.3768 28.873 16.4048 28.859 16.4248 28.847C16.4808 28.815 16.5388 28.772 16.5988 28.718C16.6608 28.662 16.7168 28.602 16.7668 28.538C16.8168 28.474 16.8528 28.413 16.8748 28.355C16.8808 28.333 16.8838 28.315 16.8838 28.301C16.8838 28.251 16.8618 28.226 16.8178 28.226C16.7938 28.226 16.7658 28.236 16.7338 28.256C16.7038 28.276 16.6738 28.301 16.6438 28.331C16.6138 28.359 16.5868 28.386 16.5628 28.412C16.5148 28.464 16.4678 28.522 16.4218 28.586C16.3778 28.648 16.3388 28.708 16.3048 28.766C16.2728 28.824 16.2508 28.872 16.2388 28.91Z" fill="#9C9C9C"/>
<path d="M5 8C11.6501 8.66501 18.3499 8.66501 25 8V9C18.3499 9.66501 11.6501 9.66501 5 9V8Z" fill="#6A6A6A"/>
<path d="M9 12L9.27495 12.0786C11.33 12.6657 13.0442 14.0884 14 16L13.8999 15.8749C12.6766 14.3457 10.9317 13.322 9 13V12Z" fill="#D9D9D9"/>
<path d="M16 16C16.9558 14.0884 18.67 12.6657 20.725 12.0786L21 12V13C19.0683 13.322 17.3234 14.3457 16.1001 15.8749L16 16Z" fill="#D9D9D9"/>
<path d="M15 13L15.2245 13.691H15.9511L15.3633 14.118L15.5878 14.809L15 14.382L14.4122 14.809L14.6367 14.118L14.0489 13.691H14.7755L15 13Z" fill="#D9D9D9"/>
<path d="M15.5003 17C15.5003 17.2761 15.2758 17.5 14.9996 17.5C14.7234 17.5 14.5 17.2761 14.5 17C14.5 16.7239 14.7236 16.5 14.9998 16.5C15.276 16.5 15.5003 16.7239 15.5003 17Z" fill="#D9D9D9"/>
<defs>
<radialGradient id="paint0_angular_1649_27" cx="0" cy="0" r="1" gradientUnits="userSpaceOnUse" gradientTransform="translate(15 37.5) rotate(90) scale(14.5 13.3042)">
<stop offset="0.017687"/>
<stop offset="0.0972068"/>
<stop offset="0.894313"/>
<stop offset="0.933604" stop-color="#6A6A6A"/>
</radialGradient>
<radialGradient id="paint1_radial_1649_27" cx="0" cy="0" r="1" gradientUnits="userSpaceOnUse" gradientTransform="translate(-68 -2.5) rotate(16.3558) scale(95.8801 66.1242)">
<stop/>
<stop offset="0.875"/>
<stop offset="0.964669" stop-color="#6A6A6A"/>
<stop offset="1"/>
</radialGradient>
</defs>
</svg>
