<svg width="30" height="47" viewBox="0 0 30 47" fill="none" xmlns="http://www.w3.org/2000/svg">
<path d="M10 5L20 7V47H10V5Z" fill="#9BACB3"/>
<path d="M15 45.65H11.425V42.655C11.425 42.285 11.5183 41.9983 11.705 41.795C11.8917 41.5883 12.175 41.485 12.555 41.485C12.935 41.485 13.2183 41.5883 13.405 41.795C13.5917 41.9983 13.685 42.285 13.685 42.655V44.85H15V45.65ZM12.075 42.75V44.85H13.03L13.035 42.75C13.035 42.6033 12.9983 42.4917 12.925 42.415C12.8517 42.335 12.7283 42.295 12.555 42.295C12.3783 42.295 12.255 42.335 12.185 42.415C12.1117 42.4917 12.075 42.6033 12.075 42.75ZM15 41.0619H12.425L12.425 39.0919C12.425 38.8019 12.4983 38.5886 12.645 38.4519C12.7883 38.3152 12.9783 38.2469 13.215 38.2469H13.75V38.9819H13.305C13.105 38.9819 13.005 39.0819 13.005 39.2819V40.3269H15V41.0619ZM15.025 36.4314C15.025 36.878 14.915 37.2264 14.695 37.4764C14.4717 37.7264 14.145 37.8514 13.715 37.8514C13.2817 37.8514 12.955 37.7264 12.735 37.4764C12.5117 37.2264 12.4 36.878 12.4 36.4314V35.1814C12.4 34.888 12.47 34.6647 12.61 34.5114C12.7467 34.3547 12.9433 34.2764 13.2 34.2764C13.7233 34.2764 13.985 34.578 13.985 35.1814V37.0714C14.295 37.0014 14.45 36.788 14.45 36.4314L14.45 34.4064H15.025L15.025 36.4314ZM12.975 36.4314C12.975 36.7747 13.12 36.9864 13.41 37.0664V35.2164C13.41 35.1497 13.39 35.098 13.35 35.0614C13.31 35.0214 13.255 35.0014 13.185 35.0014C13.045 35.0014 12.975 35.073 12.975 35.2164V36.4314ZM15.025 33.9106H14.45V31.4606C14.45 31.3206 14.3717 31.2506 14.215 31.2506C14.0617 31.2506 13.985 31.3206 13.985 31.4606V33.0456C13.985 33.3423 13.9183 33.5673 13.785 33.7206C13.6483 33.8739 13.4533 33.9506 13.2 33.9506C12.9433 33.9506 12.7467 33.8739 12.61 33.7206C12.47 33.5639 12.4 33.3389 12.4 33.0456V30.7656H12.975V33.0106C12.975 33.1539 13.045 33.2256 13.185 33.2256C13.255 33.2256 13.31 33.2056 13.35 33.1656C13.39 33.1256 13.41 33.0739 13.41 33.0106V31.3306C13.41 31.0706 13.4783 30.8723 13.615 30.7356C13.7483 30.5956 13.9433 30.5256 14.2 30.5256C14.46 30.5256 14.6633 30.5956 14.81 30.7356C14.9533 30.8756 15.025 31.0739 15.025 31.3306V33.9106ZM15 28.76C15 29.05 14.9283 29.2633 14.785 29.4C14.6383 29.5367 14.4467 29.605 14.21 29.605H13V30.35H12.425V29.605H11.635V28.88H12.425V27.81H13V28.88H14.12C14.3233 28.88 14.425 28.78 14.425 28.58V27.67H15V28.76ZM15 27.2973H12.425V26.5723H15V27.2973ZM12 27.3023H11.435V26.5673H12V27.3023ZM16.125 25.4129H15.55V23.9029C15.55 23.7029 15.4483 23.6029 15.245 23.6029H15V24.7029C15 25.1495 14.89 25.4979 14.67 25.7479C14.45 25.9979 14.1317 26.1229 13.715 26.1229C13.295 26.1229 12.975 25.9979 12.755 25.7479C12.535 25.4979 12.425 25.1495 12.425 24.7029V22.8779H15.335C15.5717 22.8779 15.7617 22.9462 15.905 23.0829C16.0517 23.2195 16.125 23.4329 16.125 23.7229V25.4129ZM14.425 24.7029V23.6029H13V24.7029C13 24.9195 13.06 25.0862 13.18 25.2029C13.2967 25.3162 13.475 25.3729 13.715 25.3729C13.9517 25.3729 14.13 25.3162 14.25 25.2029C14.3667 25.0862 14.425 24.9195 14.425 24.7029ZM15.025 21.0066C15.025 21.4532 14.915 21.8016 14.695 22.0516C14.4717 22.3016 14.145 22.4266 13.715 22.4266C13.2817 22.4266 12.955 22.3016 12.735 22.0516C12.5117 21.8016 12.4 21.4532 12.4 21.0066V19.7566C12.4 19.4632 12.47 19.2399 12.61 19.0866C12.7467 18.9299 12.9433 18.8516 13.2 18.8516C13.7233 18.8516 13.985 19.1532 13.985 19.7566V21.6466C14.295 21.5766 14.45 21.3632 14.45 21.0066V18.9816H15.025V21.0066ZM12.975 21.0066C12.975 21.3499 13.12 21.5616 13.41 21.6416V19.7916C13.41 19.7249 13.39 19.6732 13.35 19.6366C13.31 19.5966 13.255 19.5766 13.185 19.5766C13.045 19.5766 12.975 19.6482 12.975 19.7916V21.0066Z" fill="black"/>
<path d="M10 5L20 7V22L10 5Z" fill="#E5ECEF"/>
<path d="M19.01 45.924H18.78V44.944C18.78 44.888 18.7487 44.86 18.686 44.86C18.6247 44.86 18.594 44.888 18.594 44.944V45.578C18.594 45.6967 18.5673 45.7867 18.514 45.848C18.4593 45.9093 18.3813 45.94 18.28 45.94C18.1773 45.94 18.0987 45.9093 18.044 45.848C17.988 45.7853 17.96 45.6953 17.96 45.578V44.666H18.19V45.564C18.19 45.6213 18.218 45.65 18.274 45.65C18.302 45.65 18.324 45.642 18.34 45.626C18.356 45.61 18.364 45.5893 18.364 45.564V44.892C18.364 44.788 18.3913 44.7087 18.446 44.654C18.4993 44.598 18.5773 44.57 18.68 44.57C18.784 44.57 18.8653 44.598 18.924 44.654C18.9813 44.71 19.01 44.7893 19.01 44.892V45.924ZM19 43.8638C19 43.9798 18.9713 44.0651 18.914 44.1198C18.8553 44.1744 18.7787 44.2018 18.684 44.2018H18.2V44.4998H17.97V44.2018H17.654V43.9118H17.97V43.4838H18.2V43.9118H18.648C18.7293 43.9118 18.77 43.8718 18.77 43.7918V43.4278H19V43.8638ZM19 43.0047C19 43.1127 18.9727 43.1953 18.918 43.2527C18.8633 43.31 18.7853 43.3387 18.684 43.3387C18.584 43.3387 18.5067 43.31 18.452 43.2527C18.3973 43.1953 18.37 43.1127 18.37 43.0047V42.2367H18.322C18.2407 42.2367 18.2 42.2767 18.2 42.3567V43.2047H17.97V42.2807C17.97 42.1593 17.998 42.0733 18.054 42.0227C18.1087 41.972 18.186 41.9467 18.286 41.9467H19V43.0047ZM18.77 42.9527V42.2367H18.6V42.9527C18.6 42.978 18.608 42.998 18.624 43.0127C18.6387 43.026 18.6587 43.0327 18.684 43.0327C18.7093 43.0327 18.73 43.026 18.746 43.0127C18.762 42.998 18.77 42.978 18.77 42.9527ZM19.45 41.4819H19.22V40.8779C19.22 40.7979 19.1793 40.7579 19.098 40.7579H19V41.1979C19 41.3766 18.956 41.5159 18.868 41.6159C18.78 41.7159 18.6527 41.7659 18.486 41.7659C18.318 41.7659 18.19 41.7159 18.102 41.6159C18.014 41.5159 17.97 41.3766 17.97 41.1979V40.4679H19.134C19.2287 40.4679 19.3047 40.4953 19.362 40.5499C19.4207 40.6046 19.45 40.6899 19.45 40.8059V41.4819ZM18.77 41.1979V40.7579H18.2V41.1979C18.2 41.2846 18.224 41.3513 18.272 41.3979C18.3187 41.4433 18.39 41.4659 18.486 41.4659C18.5807 41.4659 18.652 41.4433 18.7 41.3979C18.7467 41.3513 18.77 41.2846 18.77 41.1979ZM19.01 39.7194C19.01 39.8981 18.966 40.0374 18.878 40.1374C18.7887 40.2374 18.658 40.2874 18.486 40.2874C18.3127 40.2874 18.182 40.2374 18.094 40.1374C18.0047 40.0374 17.96 39.8981 17.96 39.7194V39.2194C17.96 39.1021 17.988 39.0128 18.044 38.9514C18.0987 38.8888 18.1773 38.8574 18.28 38.8574C18.4893 38.8574 18.594 38.9781 18.594 39.2194V39.9754C18.718 39.9474 18.78 39.8621 18.78 39.7194V38.9094H19.01V39.7194ZM18.19 39.7194C18.19 39.8568 18.248 39.9414 18.364 39.9734V39.2334C18.364 39.2068 18.356 39.1861 18.34 39.1714C18.324 39.1554 18.302 39.1474 18.274 39.1474C18.218 39.1474 18.19 39.1761 18.19 39.2334V39.7194ZM19.386 37.9479H17.514V37.7079H19.386V37.9479ZM19.386 37.4284H17.514V37.1884H19.386V37.4284Z" fill="#E5ECEF"/>
</svg>
