<svg width="112" height="200" viewBox="0 0 28 50" fill="none" xmlns="http://www.w3.org/2000/svg">
<path d="M14.0001 41L27 50H1L14.0001 41Z" fill="#404040"/>
<path d="M13 45L1 6.40341L28 0L15.5 45H13Z" fill="url(#paint0_angular_1705_90)"/>
<path d="M6.61402 9.19623C6.84548 9.09247 6.99593 8.91857 7.06535 8.67453C7.13478 8.4305 7.12342 8.16141 7.03128 7.86726C6.96391 7.65219 6.87016 7.4749 6.75005 7.33539C6.63043 7.19747 6.49562 7.10251 6.34561 7.05051C6.1961 7.0001 6.04386 6.99917 5.88888 7.04772C5.7592 7.08834 5.65737 7.1541 5.58339 7.24501C5.51148 7.337 5.46005 7.44167 5.42909 7.55904C5.39971 7.67592 5.38209 7.79431 5.37625 7.91423C5.37198 8.03366 5.3721 8.14216 5.37662 8.23973L5.39835 8.77475C5.40477 8.91166 5.403 9.06678 5.39303 9.24009C5.38357 9.41498 5.35052 9.58944 5.29389 9.76347C5.23935 9.93859 5.14841 10.0973 5.02107 10.2397C4.89374 10.382 4.71621 10.4889 4.48849 10.5602C4.22597 10.6424 3.96721 10.648 3.7122 10.5768C3.45769 10.5071 3.22685 10.3606 3.01968 10.1373C2.81301 9.91546 2.65121 9.61795 2.5343 9.24474C2.42531 8.89683 2.38708 8.57798 2.4196 8.2882C2.45262 8 2.54676 7.7517 2.70202 7.54329C2.85778 7.33646 3.06553 7.18195 3.32526 7.07975L3.51549 7.68701C3.337 7.76029 3.20451 7.86952 3.118 8.01471C3.03358 8.16098 2.98812 8.32631 2.98163 8.51069C2.97721 8.69615 3.00522 8.88535 3.06566 9.07828C3.136 9.30285 3.23554 9.49308 3.36426 9.64899C3.49457 9.80441 3.6417 9.91375 3.80565 9.977C3.97119 10.0398 4.14252 10.0434 4.31963 9.98792C4.48094 9.93739 4.59808 9.8512 4.67105 9.72935C4.74402 9.6075 4.7891 9.46314 4.80629 9.29625C4.82347 9.12936 4.82903 8.95309 4.82297 8.76744L4.80651 8.11616C4.79673 7.70243 4.85837 7.35317 4.99144 7.06836C5.1245 6.78355 5.35471 6.58987 5.68207 6.48732C5.95407 6.40211 6.21432 6.40134 6.46281 6.485C6.71338 6.56975 6.93395 6.71947 7.1245 6.93416C7.31713 7.14993 7.46199 7.4128 7.55909 7.72276C7.65718 8.03588 7.68823 8.3318 7.65224 8.61051C7.61783 8.88872 7.52646 9.12922 7.37811 9.33198C7.23026 9.53633 7.03501 9.68085 6.79237 9.76554L6.61402 9.19623ZM3.47259 11.9406L8.3307 10.4187L8.84492 12.0602C8.96431 12.4414 8.99312 12.7745 8.93133 13.0595C8.87162 13.3457 8.74386 13.5836 8.54805 13.7735C8.35224 13.9633 8.11122 14.1031 7.82498 14.1928C7.53874 14.2824 7.26027 14.3054 6.98956 14.2617C6.71935 14.2196 6.47676 14.0993 6.2618 13.901C6.04842 13.7021 5.88253 13.4137 5.76413 13.0358L5.39556 11.8592L5.91742 11.6957L6.28005 12.8533C6.3618 13.1142 6.47251 13.3097 6.61219 13.4396C6.75187 13.5695 6.90955 13.646 7.08524 13.6691C7.26301 13.6933 7.44915 13.6749 7.64367 13.614C7.83818 13.553 8.00074 13.4622 8.13135 13.3414C8.26246 13.2222 8.34648 13.0691 8.38342 12.8821C8.42195 12.6946 8.39984 12.4688 8.31711 12.2047L7.99312 11.1705L3.65687 12.5289L3.47259 11.9406ZM4.80087 16.1808L9.65899 14.6589L10.1732 16.3004C10.2921 16.68 10.3249 17.0118 10.2715 17.296C10.2197 17.5796 10.0998 17.8152 9.91192 18.0025C9.72402 18.1899 9.48695 18.3284 9.20071 18.4181C8.91447 18.5078 8.64233 18.5288 8.38427 18.4811C8.12621 18.4334 7.89603 18.3084 7.69372 18.1061C7.49299 17.9033 7.33367 17.6137 7.21577 17.2373L6.79963 15.9089L7.33099 15.7424L7.74118 17.0519C7.82243 17.3112 7.92577 17.5081 8.05122 17.6424C8.17716 17.7784 8.32086 17.8601 8.48232 17.8877C8.64586 17.9164 8.82488 17.9002 9.01939 17.8393C9.21391 17.7784 9.37252 17.6887 9.49522 17.5704C9.61792 17.4521 9.69379 17.3007 9.72283 17.1162C9.75344 16.9312 9.72763 16.7074 9.6454 16.4449L9.32141 15.4107L4.98516 16.7691L4.80087 16.1808ZM7.69957 17.7839L5.89174 19.6631L5.67773 18.9799L7.49151 17.1197L7.69957 17.7839ZM11.1818 19.52L6.32366 21.0419L6.13938 20.4536L10.9975 18.9317L11.1818 19.52ZM12.7581 24.5519L7.89996 26.0737L7.72161 25.5044L10.7067 21.6622L10.6918 21.6148L6.87746 22.8097L6.69317 22.2214L11.5513 20.6995L11.7296 21.2688L8.73803 25.1235L8.75289 25.1709L12.5768 23.9731L12.7581 24.5519ZM12.649 29.5256C12.7924 29.4234 12.914 29.3097 13.0137 29.1847C13.1156 29.0608 13.1932 28.9262 13.2467 28.7809C13.3007 28.6372 13.3283 28.4844 13.3297 28.3225C13.3311 28.1606 13.3043 27.9918 13.2493 27.8163C13.1591 27.5285 13.0028 27.29 12.7803 27.101C12.5579 26.9119 12.2801 26.7931 11.9472 26.7446C11.6142 26.6961 11.2373 26.7377 10.8167 26.8695C10.396 27.0013 10.063 27.1829 9.81772 27.4143C9.57242 27.6457 9.41308 27.9049 9.33973 28.1918C9.26638 28.4787 9.27677 28.7724 9.37089 29.0729C9.45808 29.3512 9.59417 29.5778 9.77916 29.7525C9.96623 29.9284 10.1875 30.0414 10.4428 30.0917C10.7003 30.143 10.9777 30.1221 11.275 30.029L11.2935 30.2211L10.8358 28.7599L11.3576 28.5964L11.9373 30.4467L11.4154 30.6102C11.0153 30.7355 10.6406 30.7591 10.2914 30.6809C9.94267 30.6044 9.64005 30.4421 9.38353 30.1943C9.12909 29.9475 8.94143 29.6312 8.82056 29.2453C8.68581 28.8152 8.66862 28.4055 8.76899 28.0163C8.86985 27.6287 9.07841 27.2855 9.39465 26.9867C9.71139 26.6896 10.126 26.4607 10.6383 26.3002C11.0226 26.1798 11.3843 26.123 11.7233 26.1296C12.0643 26.1374 12.3729 26.2023 12.649 26.3242C12.9251 26.4461 13.1615 26.6186 13.3582 26.8418C13.5549 27.065 13.702 27.3323 13.7996 27.6439C13.8799 27.9001 13.9159 28.151 13.9078 28.3967C13.9017 28.6434 13.8556 28.8758 13.7693 29.0939C13.6852 29.313 13.5641 29.5116 13.4063 29.6895C13.25 29.867 13.061 30.0148 12.8392 30.1329L12.649 29.5256Z" fill="url(#paint1_linear_1705_90)"/>
<path d="M15.5 45L22 0H28L15.5 45Z" fill="url(#paint2_linear_1705_90)"/>
<defs>
<radialGradient id="paint0_angular_1705_90" cx="0" cy="0" r="1" gradientUnits="userSpaceOnUse" gradientTransform="translate(14 49) rotate(93.3665) scale(8.51469)">
<stop stop-color="#404040"/>
<stop offset="0.472786" stop-color="#404040"/>
<stop offset="0.505835" stop-color="#525252"/>
<stop offset="0.531083" stop-color="#404040"/>
</radialGradient>
<linearGradient id="paint1_linear_1705_90" x1="12.52" y1="17.4055" x2="4.88579" y2="19.797" gradientUnits="userSpaceOnUse">
<stop stop-color="#B04678"/>
<stop offset="1" stop-color="#E087B1"/>
</linearGradient>
<linearGradient id="paint2_linear_1705_90" x1="18.5" y1="18.5" x2="23.5" y2="19" gradientUnits="userSpaceOnUse">
<stop stop-color="#E087B1"/>
<stop offset="1" stop-color="#B14B7B"/>
</linearGradient>
</defs>
</svg>
