<svg width="112" height="200" viewBox="0 0 28 50" fill="none" xmlns="http://www.w3.org/2000/svg">
<path d="M14.0001 41L27 50H1L14.0001 41Z" fill="#404040"/>
<path d="M13 45L1 6.40341L28 0L15.5 45H13Z" fill="url(#paint0_angular_1705_95)"/>
<path d="M2.4146 8.56328L6.85658 5.71303L7.04384 6.3108L3.40518 8.56556L3.42004 8.613L7.70074 8.40776L7.90881 9.07196L4.27609 11.3457L4.29095 11.3931L8.56571 11.1689L8.75297 11.7667L3.47872 11.9602L3.28848 11.3529L6.82391 9.06797L6.81202 9.03001L2.60483 9.17054L2.4146 8.56328ZM9.16687 13.088L4.30876 14.6098L4.12447 14.0215L8.98258 12.4997L9.16687 13.088ZM10.7432 18.1198L5.88505 19.6417L5.70671 19.0724L8.69179 15.2302L8.67693 15.1828L4.86255 16.3777L4.67826 15.7894L9.53638 14.2675L9.71472 14.8368L6.72312 18.6915L6.73798 18.7389L10.5619 17.541L10.7432 18.1198ZM10.5068 19.1948L11.0287 19.0313L12.1701 22.6749L11.6482 22.8384L11.1697 21.3108L6.83343 22.6691L6.64914 22.0808L10.9854 20.7225L10.5068 19.1948ZM7.5964 25.1047L12.4545 23.5828L13.373 26.5148L12.8511 26.6783L12.1169 24.3346L10.4754 24.8488L11.162 27.0407L10.6402 27.2042L9.95356 25.0123L8.30256 25.5295L9.04863 27.9111L8.52676 28.0746L7.5964 25.1047ZM8.84704 29.097L13.7052 27.5751L14.2194 29.2167C14.3383 29.5962 14.371 29.928 14.3176 30.2122C14.2658 30.4959 14.146 30.7314 13.9581 30.9188C13.7702 31.1061 13.5331 31.2446 13.2469 31.3343C12.9606 31.424 12.6885 31.445 12.4304 31.3973C12.1724 31.3496 11.9422 31.2246 11.7399 31.0223C11.5392 30.8195 11.3798 30.5299 11.2619 30.1535L10.8458 28.8251L11.3772 28.6587L11.7873 29.9681C11.8686 30.2274 11.9719 30.4243 12.0974 30.5587C12.2233 30.6946 12.367 30.7764 12.5285 30.8039C12.692 30.8326 12.871 30.8165 13.0656 30.7555C13.2601 30.6946 13.4187 30.605 13.5414 30.4866C13.6641 30.3683 13.74 30.2169 13.769 30.0324C13.7996 29.8474 13.7738 29.6237 13.6916 29.3612L13.3676 28.3269L9.03132 29.6853L8.84704 29.097ZM11.7457 30.7001L9.9379 32.5793L9.72389 31.8961L11.5377 30.0359L11.7457 30.7001Z" fill="url(#paint1_linear_1705_95)"/>
<path d="M15.5 45L22 0H28L15.5 45Z" fill="url(#paint2_linear_1705_95)"/>
<defs>
<radialGradient id="paint0_angular_1705_95" cx="0" cy="0" r="1" gradientUnits="userSpaceOnUse" gradientTransform="translate(14 49) rotate(93.3665) scale(8.51469)">
<stop stop-color="#404040"/>
<stop offset="0.472786" stop-color="#404040"/>
<stop offset="0.505835" stop-color="#525252"/>
<stop offset="0.531083" stop-color="#404040"/>
</radialGradient>
<linearGradient id="paint1_linear_1705_95" x1="12.6694" y1="17.8827" x2="5.03526" y2="20.2742" gradientUnits="userSpaceOnUse">
<stop stop-color="#4299B6"/>
<stop offset="1" stop-color="#89D0E8"/>
</linearGradient>
<linearGradient id="paint2_linear_1705_95" x1="18.5" y1="18.5" x2="23.5" y2="19" gradientUnits="userSpaceOnUse">
<stop stop-color="#89D0E8"/>
<stop offset="1" stop-color="#52A1BC"/>
</linearGradient>
</defs>
</svg>
